# https://github.com/mikedh/trimesh
v -0.07015505 0.86781418 -2.51726548
v -0.07900331 0.86781418 -2.51726548
v 0.06420918 0.86661065 -2.51726548
v 0.02737459 0.82643119 -2.61756363
v -0.08203558 0.85929687 -2.51726548
v -0.04102540 0.82643119 -2.61756363
v -0.18458586 0.04756029 -3.38243859
v 0.03383680 0.71468780 -2.51726548
v 0.22193678 -0.07797739 -2.97947148
v 0.22322922 -0.07797739 -2.98204337
v 0.24962486 -0.07797739 -3.12020841
v 0.25076819 -0.07769969 -3.12677098
v 0.19002342 0.07940762 -3.28222901
v 0.15005714 0.16032207 -3.36381561
v 0.06908070 0.17587540 -3.38075383
v -0.05638557 0.17939343 -3.38438976
v -0.04549924 0.70330052 -2.51726548
v -0.19497510 0.07144576 -3.28222901
v -0.25706202 -0.07797739 -3.12260292
v -0.23325125 -0.07797739 -2.98026957
v -0.10027889 0.09162810 -3.40576176
v -0.10838150 -0.07797739 -3.40389963
v -0.18458586 -0.04650042 -3.38243859
v 0.02797110 0.69506096 -2.51726548
v -0.23026869 -0.07797739 -2.97716578
v 0.00759029 0.61525747 -2.56355685
v 0.25066878 -0.07797739 -3.12677098
v 0.20483680 -0.07742200 -3.28222901
v 0.16760452 0.07940762 -3.38235001
v 0.06908070 0.07940762 -3.42234522
v -0.04112482 0.69506096 -2.51726548
v -0.19557161 -0.07797739 -3.31823353
v 0.06222081 -0.07797739 -3.42252260
v -0.10082569 -0.07797739 -3.40593914
v -0.12443761 -0.07797739 -3.39937680
v -0.17777568 -0.07797739 -3.37348197
v -0.02342831 0.61525747 -2.56355685
v 0.20463794 -0.07797739 -3.28222901
v 0.16790278 -0.07797739 -3.38270477
v 0.16800219 -0.07742200 -3.38279334
v 0.06908070 -0.07742200 -3.42314332
v 0.06908070 -0.07797739 -3.42296594
f 1 2 5
f 1 5 17
f 1 17 31
f 1 31 24
f 1 24 8
f 1 8 3
f 1 3 4
f 1 4 6
f 1 6 2
f 2 6 7
f 2 7 5
f 3 8 9
f 3 9 10
f 3 10 11
f 3 11 12
f 3 12 13
f 3 13 14
f 3 14 4
f 4 14 15
f 4 15 16
f 4 16 6
f 5 7 18
f 5 18 19
f 5 19 20
f 5 20 17
f 6 16 7
f 7 21 22
f 7 22 23
f 7 23 19
f 7 19 18
f 7 16 21
f 8 24 9
f 9 25 20
f 9 20 19
f 9 19 32
f 9 32 36
f 9 36 35
f 9 35 22
f 9 22 34
f 9 34 33
f 9 33 42
f 9 42 39
f 9 39 38
f 9 38 27
f 9 27 11
f 9 11 10
f 9 24 26
f 9 26 25
f 11 27 12
f 12 27 38
f 12 38 28
f 12 28 29
f 12 29 13
f 13 29 14
f 14 29 30
f 14 30 15
f 15 30 16
f 16 30 21
f 17 20 25
f 17 25 31
f 19 23 32
f 21 30 33
f 21 33 34
f 21 34 22
f 22 35 23
f 23 35 36
f 23 36 32
f 24 31 37
f 24 37 26
f 25 26 37
f 25 37 31
f 28 38 39
f 28 39 40
f 28 40 29
f 29 40 41
f 29 41 30
f 30 41 33
f 33 41 42
f 39 42 41
f 39 41 40

