# https://github.com/mikedh/trimesh
v 0.06896152 -1.32666124 0.16825585
v -0.08764030 -1.31612247 0.16825585
v 0.06896152 -1.32224966 -0.14547449
v 0.16088480 -1.27053642 -0.14547449
v 0.16177082 -1.27176195 0.16825585
v 0.15756228 -1.26661514 0.26742060
v 0.57819434 -0.91589681 1.57954262
v 0.49978269 -0.96099267 1.57954262
v 0.46301337 -0.94089551 1.97670130
v 0.38172217 -0.95903191 2.03739920
v 0.22578485 -1.00388274 2.04988844
v 0.06896152 -1.02814622 2.04988844
v -0.08764030 -1.02643062 2.04988844
v -0.17070351 -1.25975273 0.25717939
v -0.17181102 -1.26122318 0.16825585
v -0.17070351 -1.25975273 -0.14547449
v -0.08764030 -1.31146574 -0.14547449
v -0.24446364 -0.99947116 2.04988844
v -0.37293471 -0.96025744 2.04988844
v -0.45134639 -0.92815106 2.04988844
v -0.49963377 -0.95094409 1.68944824
v -0.50937989 -0.95658109 1.57954262
v 0.02909119 -1.31244611 -0.17719725
v 0.06896152 -1.31440687 -0.17719725
v 0.15955580 -1.26882082 -0.17719725
v 0.68451521 -0.83746926 -0.17719725
v 0.62603877 -0.94555224 0.54618095
v 0.62603877 -0.94555224 0.60113365
v 0.68451521 -0.83746926 1.57954262
v 0.64486640 -0.80511784 2.04988844
v 0.52503390 -0.88820212 2.03739920
v 0.55161412 -0.83036170 2.21025046
v 0.43333211 -0.92913144 2.08136126
v 0.38172217 -0.91957305 2.22174063
v 0.30353200 -0.93967021 2.28393702
v 0.24106849 -0.96638451 2.22174063
v 0.06896152 -0.99873593 2.20675335
v -0.08764030 -0.99726537 2.20675335
v -0.63895845 -0.94163085 0.57340753
v -0.58779154 -0.90927943 1.57954262
v -0.63895845 -0.94163085 0.55592257
v -0.17026049 -1.25901750 -0.17719725
v -0.11665705 -1.29234918 -0.17719725
v -0.08764030 -1.30435840 -0.17719725
v -0.25465270 -0.96417872 2.21374757
v -0.31379371 -0.93623900 2.27069853
v -0.39685693 -0.91393617 2.21374757
v -0.56630584 -0.82398947 2.19826087
v -0.55811028 -0.86491891 2.04988844
v 0.76292692 -0.77154112 -0.17719725
v 0.79172217 -0.79997103 0.52345056
v 0.79371564 -0.80193167 0.63885132
v 0.76292692 -0.77154112 1.57954262
v 0.72327806 -0.73257233 2.04988844
v 0.61186261 -0.77742316 2.26470385
v 0.50731372 -0.81271559 2.31316209
v 0.38260819 -0.84433167 2.32839897
v 0.19898313 -0.95216950 2.30192175
v 0.06896152 -0.96123771 2.31341192
v -0.08764030 -0.96050248 2.31266244
v -0.20924483 -0.95118912 2.30092244
v -0.80353439 -0.79310862 0.63885132
v -0.80442035 -0.79433403 0.53643934
v -0.69344794 -0.83085188 1.57954262
v -0.65468510 -0.79825543 2.04988844
v -0.69344794 -0.83085188 -0.17719725
v -0.51956898 -0.80928439 2.31141354
v -0.62411787 -0.77252139 2.24497056
v 0.83048495 -0.69311346 -0.17719725
v 0.93835638 -0.63576334 0.54368304
v 0.93835638 -0.63576334 0.60687873
v 0.83048495 -0.69311346 1.57954262
v 0.79792420 -0.65414479 2.04988844
v 0.77001497 -0.62130329 2.26770107
v 0.66546608 -0.67277138 2.31416117
v 0.55161412 -0.71688675 2.33714151
v 0.38260819 -0.70463261 2.37286068
v 0.06896152 -0.86148770 2.35787364
v 0.24106849 -0.87692813 2.33089677
v -0.08764030 -0.86148770 2.35712439
v -0.25465270 -0.87496737 2.33014729
v -0.40128697 -0.83918486 2.32715007
v -0.95083313 -0.62718533 0.56516465
v -0.77185960 -0.76124751 1.57954262
v -0.83963917 -0.68281985 1.57954262
v -0.95083313 -0.62718533 0.55867032
v -0.77185960 -0.76124751 -0.17719725
v -0.75591145 -0.77546240 -0.17719725
v -0.73309675 -0.72178864 2.04988844
v -0.67727831 -0.66786961 2.31416117
v -0.56630584 -0.71394585 2.33589261
v -0.78204869 -0.61248013 2.24172351
v -0.71116807 -0.70071110 2.19101706
v 0.90889666 -0.58993214 -0.17719725
v 1.09074964 -0.31935712 0.55367448
v 0.95496905 -0.51150471 -0.17719725
v 1.09074964 -0.31935712 0.58065135
v 0.97335365 -0.56272764 0.65109086
v 0.95474750 -0.51150471 1.57954262
v 0.90889666 -0.58993214 1.57954262
v 0.93414788 -0.47400648 1.98394512
v 0.88165192 -0.53478781 2.04164556
v 0.93326186 -0.31641605 2.28768395
v 0.80567678 -0.51689655 2.31366151
v 0.82406143 -0.56052185 2.21199901
v 0.90845362 -0.41518579 2.20675335
v 0.70910196 -0.56052185 2.33739110
v 0.53943149 -0.54777740 2.37361016
v 0.22578485 -0.70463261 2.37410982
v -0.24446364 -0.70463261 2.37410982
v -0.40128697 -0.70463261 2.37161178
v -1.05516053 -0.39092220 0.63885132
v -0.91805083 -0.57351145 1.57954262
v -0.96412321 -0.49508390 1.57954262
v -0.80729991 -0.64336098 2.04988844
v -1.00930958 -0.39092220 -0.17719725
v -0.96412321 -0.49508390 -0.17719725
v -0.91805083 -0.57351145 -0.17719725
v -0.83963917 -0.68281985 -0.17719725
v -0.72379368 -0.55513001 2.33564278
v -0.81815347 -0.50782835 2.31066406
v -0.55811028 -0.54777740 2.37361016
v -0.83188659 -0.55513001 2.19651231
v 1.12774050 -0.07745705 0.63885132
v 1.00879402 -0.39092220 -0.17719725
v 1.05641690 -0.23406711 -0.17719725
v 1.10248928 -0.04535079 -0.17719725
v 1.06084694 -0.37940328 0.63535433
v 1.10160332 -0.23798850 0.63535433
v 1.05641690 -0.23406711 1.57954262
v 1.00857247 -0.39092220 1.57954262
v 0.95386154 -0.39239276 2.04164556
v 0.94367244 -0.23406711 2.30142210
v 0.85595772 -0.37768768 2.32165457
v 1.00214895 -0.23406711 2.04988844
v 0.97091719 -0.23406711 2.20675335
v 0.99860486 -0.07745705 2.20675335
v 0.69625486 -0.39092220 2.37336034
v 0.69625486 -0.23406711 2.37410982
v 0.06896152 -0.07745705 2.37435941
v -0.08764030 -0.07745705 2.37435941
v -0.71493364 -0.23406711 2.37410982
v -1.09613834 -0.26200694 0.63885132
v -1.11407996 -0.18970653 0.54018616
v -1.00908815 -0.39092220 1.57954262
v -0.87131397 -0.54777740 2.04988844
v -0.95947168 -0.48650589 1.68520188
v -1.04762938 -0.26617343 -0.17719725
v -0.84606275 -0.39092220 2.32640058
v -0.71493364 -0.39092220 2.37086230
v -0.95858566 -0.18970653 2.29742557
v -0.94352353 -0.29435830 2.25870894
v -0.92048734 -0.38356971 2.20650376
v -0.93577101 -0.43381227 2.04988844
v 1.10248928 0.06224201 -0.17719725
v 1.12751895 0.07915300 0.63885132
v 1.07989607 -0.07745705 1.57954262
v 1.02806470 -0.07745705 2.04988844
v 0.95674103 -0.07745705 2.31690880
v 0.85307816 -0.23406711 2.34588381
v 0.99860486 0.07915300 2.20675335
v 0.85307816 -0.07745705 2.36137075
v 0.69625486 0.23600809 2.37410982
v 0.06896152 0.07915300 2.37435941
v -0.08764030 0.07915300 2.37435941
v -0.71493364 0.23600809 2.37410982
v -0.87175695 -0.07745705 2.35187873
v -1.11275102 -0.18357940 0.63885132
v -1.05693246 -0.23406711 1.57954262
v -1.13312920 -0.07745705 0.63885132
v -1.08971482 -0.07745705 -0.17719725
v -1.05737556 -0.23406711 -0.17719725
v -0.96700277 -0.35538473 2.04988844
v -0.88349654 -0.23896888 2.32814914
v -0.96611675 -0.07745705 2.30741701
v -0.99757005 -0.07745705 2.20675335
v -0.96921779 -0.23896888 2.20650376
v -1.00222153 -0.23406711 2.04988844
v -0.95548467 -0.32621948 2.15429857
v 1.08543363 0.14066961 -0.17719725
v 1.09052821 0.32080792 0.55417413
v 1.09052821 0.32080792 0.57915262
v 1.10138177 0.23943930 0.63435514
v 1.05597392 0.23600809 1.57954262
v 1.07967464 0.07915300 1.57954262
v 1.02806470 0.07915300 2.04988844
v 0.95674103 0.07915300 2.31690880
v 1.00170597 0.23600809 2.04988844
v 0.97047415 0.23600809 2.20675335
v 0.93304037 0.31786687 2.28743413
v 0.94345095 0.23600809 2.30117251
v 0.85307816 0.07915300 2.36137075
v 0.22578485 0.70657348 2.37410982
v 0.69625486 0.39286324 2.37311051
v 0.53943149 0.54971839 2.37361016
v -0.24446364 0.70657348 2.37410982
v -0.55811028 0.54971839 2.37361016
v -0.71493364 0.39286324 2.37086230
v -0.87175695 0.07915300 2.35187873
v -1.02725131 -0.07745705 2.04988844
v -1.07996865 -0.07745705 1.57954262
v -1.13512268 0.07915300 0.63885132
v -1.09060079 0.04729177 -0.17719725
v -0.96589526 0.07915300 2.30741701
v -0.99734850 0.07915300 2.20675335
v 1.06040396 0.23600809 -0.17719725
v 0.93791340 0.63696904 0.51520767
v 1.05021481 0.26786929 -0.17719725
v 1.00945855 0.39286324 -0.17719725
v 0.92971783 0.62397950 -0.17719725
v 0.93791340 0.63696904 0.60413110
v 0.97268924 0.56417843 0.64934230
v 1.06040396 0.38109911 0.63435514
v 0.95430452 0.51246525 1.57954262
v 1.00790794 0.39286324 1.57954262
v 0.85307816 0.23600809 2.34563422
v 0.95341850 0.39408865 2.04089608
v 0.76935044 0.62250893 2.26570269
v 0.80545529 0.51810225 2.31341192
v 0.85573617 0.37913841 2.32140498
v 0.93370484 0.47521218 1.98244639
v 0.90801064 0.41639149 2.20675335
v 0.38260819 0.70657348 2.37261086
v 0.06896152 0.86342862 2.35687433
v 0.70888047 0.56197270 2.33739110
v 0.55094959 0.71833766 2.33689168
v -0.08764030 0.86342862 2.35612508
v -0.40128697 0.70657348 2.37136195
v -0.56586286 0.71564168 2.33589261
v -0.72357219 0.55682589 2.33539295
v -0.84561971 0.39286324 2.32640058
v -0.88327505 0.24041964 2.32814914
v -1.02702976 0.07915300 2.04988844
v -1.07974722 0.07915300 1.57954262
v -1.11452306 0.19042207 0.63885132
v -1.11430151 0.19091225 0.53918697
v -1.09082233 0.07915300 -0.17719725
v -1.05693246 0.23600809 1.57954262
v -0.95836416 0.19091225 2.29717574
v -0.96899624 0.24041964 2.20600410
v -1.00177855 0.23600809 2.04988844
v 0.79127913 0.80142182 0.52419981
v 0.79282968 0.80289233 0.63885132
v 0.91376969 0.63868464 -0.17719725
v 0.82982048 0.69382903 1.57954262
v 0.90823213 0.59089286 1.57954262
v 0.61097664 0.77862886 2.26170639
v 0.66480155 0.67397702 2.31416117
v 0.82339690 0.56197270 2.21075011
v 0.88098739 0.53648369 2.04089608
v 0.79703817 0.65510539 2.04988844
v 0.72217055 0.73353299 2.04988844
v 0.38260819 0.84504718 2.32814914
v 0.23951797 0.87837892 2.33039735
v 0.06896152 0.96219837 2.31241261
v 0.50642775 0.81392123 2.31291227
v -0.25332370 0.87641822 2.32989769
v -0.40128697 0.83990037 2.32690024
v -0.08764030 0.96146314 2.31166337
v -0.51868296 0.81073512 2.31091412
v -0.67705682 0.66932040 2.31416117
v -0.81771049 0.50903405 2.31041447
v -1.09591679 0.26884964 0.63885132
v -1.05848307 0.23600809 -0.17719725
v -0.96678128 0.35634539 2.04988844
v -1.00864505 0.39286324 1.57954262
v -0.94330204 0.29556403 2.25770963
v -0.95526318 0.32767033 2.15304967
v 0.62515275 0.94700298 0.54767968
v 0.85130618 0.69578973 -0.17719725
v 0.76248388 0.77421727 -0.17719725
v 0.62515275 0.94700298 0.59688729
v 0.76181941 0.77225658 1.57954262
v 0.30087400 0.94038572 2.27994072
v 0.64375889 0.80607850 2.04988844
v 0.55094959 0.83107726 2.20850190
v 0.38083617 0.92028867 2.21924283
v 0.19632511 0.95337520 2.30117251
v 0.06896152 0.99871622 2.20675335
v -0.20680832 0.95239494 2.30017320
v -0.08764030 0.99724565 2.20675335
v -0.31135719 0.93719955 2.26720165
v -0.39597090 0.91465168 2.21174919
v -0.56586286 0.82470504 2.19676214
v -0.62323185 0.77372708 2.24247276
v -0.78160571 0.61368582 2.23997496
v -0.83122212 0.55682589 2.19526341
v -0.92004436 0.38502048 2.20600410
v -1.05449600 0.39286324 0.63885132
v -1.00886660 0.39286324 -0.17719725
v -0.93532797 0.43477299 2.04988844
v -0.95925019 0.48771159 1.68445240
v -0.96368023 0.49604451 1.57954262
v 0.68407223 0.83842986 -0.17719725
v 0.58085234 0.91685747 -0.17719725
v 0.50244069 0.96685499 -0.17719725
v 0.09421274 1.17713892 0.00015031
v 0.19964763 1.17713892 1.26581234
v 0.57642230 0.91685747 1.57954262
v 0.68340776 0.83842986 1.57954262
v 0.23951797 0.96710002 2.21924283
v 0.46168434 0.94234636 1.97370385
v 0.17506093 1.17713892 1.39120455
v 0.08358065 1.17713892 1.47513249
v 0.52414788 0.88916267 2.03540082
v 0.43178159 0.93058229 2.07811421
v 0.06896152 1.17713892 1.47663122
v 0.07915061 1.17713892 1.47663122
v -0.09428536 1.17713892 1.46788868
v -0.25332370 0.96489435 2.21174919
v -0.34015243 0.94871858 2.16279129
v -0.44890985 0.92911172 2.04988844
v -0.18643014 1.17713892 1.37896513
v -0.55811028 0.86514423 2.04988844
v -0.65357759 0.79921609 2.04988844
v -0.73198924 0.72274919 2.04988844
v -0.71050360 0.70216195 2.18901867
v -0.80663538 0.64432164 2.04988844
v -0.87020646 0.54971839 2.04988844
v -0.95039009 0.62863612 0.56216719
v -0.95039009 0.62863612 0.55966939
v -0.97298331 0.47496708 -0.17719725
v -0.91738635 0.57447205 1.57954262
v 0.40697338 1.01048029 -0.17719725
v 0.06076595 1.17713892 -0.11375173
v -0.10580345 1.17713892 1.45739758
v -0.37049820 0.96121799 2.04988844
v -0.49852626 0.95239494 1.68794951
v -0.20636531 1.17713892 1.25632055
v -0.58624105 0.91024009 1.57954262
v -0.69256192 0.83181255 1.57954262
v -0.77097358 0.76220805 1.57954262
v -0.83897464 0.68378051 1.57954262
v -0.80264837 0.79431432 0.63885132
v -0.80397737 0.79553979 0.53768824
v -0.83897464 0.68378051 -0.17719725
v -0.91738635 0.57447205 -0.17719725
v -0.95437716 0.51197512 -0.17719725
v -0.96368023 0.49604451 -0.17719725
v 0.38260819 1.02150924 -0.17719725
v 0.05766493 1.17713892 -0.11375173
v 0.25413708 1.06292875 -0.17719725
v 0.21913980 1.07224199 -0.17719725
v 0.06763251 1.11072060 -0.17719725
v 0.03839427 1.11268124 -0.17719725
v -0.09605738 1.17713892 0.01139065
v -0.63807248 0.94308158 0.55742130
v -0.63807248 0.94308158 0.56891135
v -0.69256192 0.83181255 -0.17719725
v -0.77097358 0.76220805 -0.17719725
v -0.05707304 1.17713892 -0.11350202
v -0.09982291 1.09037840 -0.17719725
v -0.40128697 1.01317627 -0.17719725
v -0.51248087 0.96195322 -0.17719725
v -0.59089258 0.91024009 -0.17719725
v -0.24446364 1.06219353 -0.17719725
f 1 2 3
f 1 3 4
f 1 4 5
f 1 5 6
f 1 6 7
f 1 7 8
f 1 8 9
f 1 9 10
f 1 10 11
f 1 11 12
f 1 12 13
f 1 13 2
f 2 14 15
f 2 15 16
f 2 16 17
f 2 17 3
f 2 13 18
f 2 18 19
f 2 19 20
f 2 20 21
f 2 21 22
f 2 22 14
f 3 17 23
f 3 23 24
f 3 24 25
f 3 25 4
f 4 25 26
f 4 26 27
f 4 27 5
f 5 27 28
f 5 28 7
f 5 7 6
f 7 29 30
f 7 30 9
f 7 9 8
f 7 28 29
f 9 30 31
f 9 31 32
f 9 32 33
f 9 33 34
f 9 34 35
f 9 35 10
f 10 35 11
f 11 35 36
f 11 36 37
f 11 37 12
f 12 37 38
f 12 38 13
f 13 38 18
f 14 39 15
f 14 22 40
f 14 40 39
f 15 39 41
f 15 41 16
f 16 42 17
f 16 41 42
f 17 42 43
f 17 43 44
f 17 44 23
f 18 38 45
f 18 45 46
f 18 46 19
f 19 46 20
f 20 46 47
f 20 47 48
f 20 48 49
f 20 49 21
f 21 49 40
f 21 40 22
f 23 44 43
f 23 43 42
f 23 42 66
f 23 66 88
f 23 88 87
f 23 87 119
f 23 119 118
f 23 118 117
f 23 117 116
f 23 116 148
f 23 148 172
f 23 172 171
f 23 171 203
f 23 203 237
f 23 237 264
f 23 264 290
f 23 290 322
f 23 322 339
f 23 339 338
f 23 338 337
f 23 337 336
f 23 336 350
f 23 350 349
f 23 349 355
f 23 355 354
f 23 354 353
f 23 353 356
f 23 356 352
f 23 352 345
f 23 345 344
f 23 344 343
f 23 343 342
f 23 342 340
f 23 340 324
f 23 324 296
f 23 296 295
f 23 295 294
f 23 294 271
f 23 271 270
f 23 270 244
f 23 244 210
f 23 210 209
f 23 209 208
f 23 208 206
f 23 206 180
f 23 180 155
f 23 155 127
f 23 127 126
f 23 126 125
f 23 125 96
f 23 96 94
f 23 94 69
f 23 69 50
f 23 50 26
f 23 26 25
f 23 25 24
f 26 50 27
f 27 51 52
f 27 52 28
f 27 50 51
f 28 52 53
f 28 53 29
f 29 53 30
f 30 54 55
f 30 55 32
f 30 32 31
f 30 53 54
f 32 34 33
f 32 55 34
f 34 55 35
f 35 55 56
f 35 56 57
f 35 57 58
f 35 58 37
f 35 37 36
f 37 58 59
f 37 59 60
f 37 60 38
f 38 60 61
f 38 61 45
f 39 62 63
f 39 63 41
f 39 40 64
f 39 64 62
f 40 49 65
f 40 65 64
f 41 63 66
f 41 66 42
f 45 61 46
f 46 61 67
f 46 67 47
f 47 67 48
f 48 67 68
f 48 68 65
f 48 65 49
f 50 69 70
f 50 70 51
f 51 70 52
f 52 70 71
f 52 71 72
f 52 72 53
f 53 72 73
f 53 73 54
f 54 73 74
f 54 74 55
f 55 74 75
f 55 75 56
f 56 75 76
f 56 76 57
f 57 76 77
f 57 77 78
f 57 78 79
f 57 79 58
f 58 79 59
f 59 79 78
f 59 78 80
f 59 80 60
f 60 80 81
f 60 81 61
f 61 81 82
f 61 82 67
f 62 83 63
f 62 64 84
f 62 84 85
f 62 85 83
f 63 83 86
f 63 86 87
f 63 87 88
f 63 88 66
f 64 65 84
f 65 68 89
f 65 89 84
f 67 90 68
f 67 82 91
f 67 91 90
f 68 92 93
f 68 93 89
f 68 90 92
f 69 94 70
f 70 95 97
f 70 97 71
f 70 94 96
f 70 96 95
f 71 97 98
f 71 98 99
f 71 99 100
f 71 100 72
f 72 100 73
f 73 101 102
f 73 102 74
f 73 100 101
f 74 103 104
f 74 104 75
f 74 102 105
f 74 105 106
f 74 106 103
f 75 104 107
f 75 107 76
f 76 107 108
f 76 108 77
f 77 108 109
f 77 109 78
f 78 109 110
f 78 110 80
f 80 110 111
f 80 111 82
f 80 82 81
f 82 111 91
f 83 112 86
f 83 85 113
f 83 113 114
f 83 114 112
f 84 89 115
f 84 115 85
f 85 115 113
f 86 112 116
f 86 116 117
f 86 117 118
f 86 118 119
f 86 119 87
f 89 93 92
f 89 92 115
f 90 91 120
f 90 120 121
f 90 121 92
f 91 111 122
f 91 122 120
f 92 123 115
f 92 121 123
f 95 124 97
f 95 96 125
f 95 125 126
f 95 126 127
f 95 127 124
f 97 128 98
f 97 124 129
f 97 129 130
f 97 130 131
f 97 131 99
f 97 99 128
f 98 128 99
f 99 131 101
f 99 101 100
f 101 132 103
f 101 103 106
f 101 106 105
f 101 105 102
f 101 131 132
f 103 133 134
f 103 134 104
f 103 132 135
f 103 135 136
f 103 136 137
f 103 137 133
f 104 134 138
f 104 138 107
f 107 138 108
f 108 139 109
f 108 138 139
f 109 139 140
f 109 140 141
f 109 141 110
f 110 122 111
f 110 141 142
f 110 142 122
f 112 143 144
f 112 144 116
f 112 114 145
f 112 145 143
f 113 115 146
f 113 146 147
f 113 147 114
f 114 147 145
f 115 123 146
f 116 144 148
f 120 149 121
f 120 122 150
f 120 150 149
f 121 151 152
f 121 152 153
f 121 153 123
f 121 149 151
f 122 142 150
f 123 153 154
f 123 154 146
f 124 127 155
f 124 155 156
f 124 156 185
f 124 185 157
f 124 157 130
f 124 130 129
f 130 157 158
f 130 158 135
f 130 135 131
f 131 135 132
f 133 137 159
f 133 159 160
f 133 160 134
f 134 160 138
f 135 158 137
f 135 137 136
f 137 158 186
f 137 186 161
f 137 161 187
f 137 187 159
f 138 160 162
f 138 162 139
f 139 162 192
f 139 192 163
f 139 163 164
f 139 164 140
f 140 164 165
f 140 165 141
f 141 165 166
f 141 166 142
f 142 166 199
f 142 199 167
f 142 167 150
f 143 168 144
f 143 145 169
f 143 169 168
f 144 168 170
f 144 170 171
f 144 171 172
f 144 172 148
f 145 147 173
f 145 173 169
f 146 154 147
f 147 154 173
f 149 150 167
f 149 167 174
f 149 174 151
f 151 174 175
f 151 175 176
f 151 176 177
f 151 177 152
f 152 177 178
f 152 178 179
f 152 179 153
f 153 179 154
f 154 179 173
f 155 180 181
f 155 181 156
f 156 181 182
f 156 182 183
f 156 183 184
f 156 184 185
f 157 185 186
f 157 186 158
f 159 187 192
f 159 192 162
f 159 162 160
f 161 186 188
f 161 188 189
f 161 189 190
f 161 190 191
f 161 191 187
f 163 193 164
f 163 192 194
f 163 194 195
f 163 195 193
f 164 193 196
f 164 196 165
f 165 196 166
f 166 196 197
f 166 197 198
f 166 198 199
f 167 199 175
f 167 175 174
f 168 169 170
f 169 173 178
f 169 178 200
f 169 200 201
f 169 201 170
f 170 202 171
f 170 201 202
f 171 202 203
f 173 179 178
f 175 199 204
f 175 204 205
f 175 205 176
f 176 205 233
f 176 233 200
f 176 200 178
f 176 178 177
f 180 206 181
f 181 207 211
f 181 211 182
f 181 206 208
f 181 208 209
f 181 209 210
f 181 210 207
f 182 211 212
f 182 212 213
f 182 213 214
f 182 214 215
f 182 215 184
f 182 184 183
f 184 215 188
f 184 188 186
f 184 186 185
f 187 191 216
f 187 216 192
f 188 217 190
f 188 190 189
f 188 215 217
f 190 218 219
f 190 219 220
f 190 220 191
f 190 217 221
f 190 221 222
f 190 222 218
f 191 220 216
f 192 216 194
f 193 195 223
f 193 223 224
f 193 224 196
f 194 216 220
f 194 220 219
f 194 219 225
f 194 225 195
f 195 225 226
f 195 226 223
f 196 224 227
f 196 227 228
f 196 228 197
f 197 228 229
f 197 229 230
f 197 230 198
f 198 230 231
f 198 231 199
f 199 231 232
f 199 232 204
f 200 233 234
f 200 234 201
f 201 234 202
f 202 235 236
f 202 236 237
f 202 237 203
f 202 234 238
f 202 238 235
f 204 232 239
f 204 239 205
f 205 240 241
f 205 241 233
f 205 239 240
f 207 242 243
f 207 243 211
f 207 210 242
f 210 244 242
f 211 243 245
f 211 245 246
f 211 246 214
f 211 214 212
f 212 214 213
f 214 246 221
f 214 221 215
f 215 221 217
f 218 247 248
f 218 248 219
f 218 222 249
f 218 249 250
f 218 250 251
f 218 251 252
f 218 252 247
f 219 248 225
f 221 251 250
f 221 250 249
f 221 249 222
f 221 246 251
f 223 226 253
f 223 253 224
f 224 253 254
f 224 254 255
f 224 255 227
f 225 248 226
f 226 248 256
f 226 256 253
f 227 257 258
f 227 258 228
f 227 255 259
f 227 259 257
f 228 258 229
f 229 258 260
f 229 260 261
f 229 261 230
f 230 261 262
f 230 262 231
f 231 262 239
f 231 239 232
f 233 241 238
f 233 238 234
f 235 263 236
f 235 238 263
f 236 263 264
f 236 264 237
f 238 241 265
f 238 265 266
f 238 266 263
f 239 262 267
f 239 267 240
f 240 267 241
f 241 267 268
f 241 268 265
f 242 269 243
f 242 244 270
f 242 270 271
f 242 271 269
f 243 269 272
f 243 272 273
f 243 273 245
f 245 273 251
f 245 251 246
f 247 274 256
f 247 256 248
f 247 252 275
f 247 275 276
f 247 276 277
f 247 277 274
f 251 273 252
f 252 273 275
f 253 256 274
f 253 274 278
f 253 278 254
f 254 278 255
f 255 279 259
f 255 278 279
f 257 259 280
f 257 280 258
f 258 280 260
f 259 279 281
f 259 281 280
f 260 280 282
f 260 282 283
f 260 283 284
f 260 284 285
f 260 285 261
f 261 285 286
f 261 286 262
f 262 286 287
f 262 287 288
f 262 288 267
f 263 289 290
f 263 290 264
f 263 266 289
f 265 268 291
f 265 291 292
f 265 292 266
f 266 292 293
f 266 293 289
f 267 288 268
f 268 288 291
f 269 271 294
f 269 294 295
f 269 295 296
f 269 296 297
f 269 297 298
f 269 298 272
f 272 298 299
f 272 299 300
f 272 300 273
f 273 300 275
f 274 301 278
f 274 277 302
f 274 302 303
f 274 303 304
f 274 304 301
f 275 302 305
f 275 305 276
f 275 300 299
f 275 299 302
f 276 305 302
f 276 302 306
f 276 306 277
f 277 306 302
f 278 301 279
f 279 307 281
f 279 301 304
f 279 304 308
f 279 308 307
f 280 281 309
f 280 309 310
f 280 310 282
f 281 307 309
f 282 311 312
f 282 312 283
f 282 310 313
f 282 313 311
f 283 312 284
f 284 312 314
f 284 314 315
f 284 315 285
f 285 315 316
f 285 316 317
f 285 317 286
f 286 317 316
f 286 316 318
f 286 318 287
f 287 318 319
f 287 319 291
f 287 291 288
f 289 320 321
f 289 321 290
f 289 293 320
f 290 321 322
f 291 319 292
f 292 323 293
f 292 319 323
f 293 323 320
f 296 324 297
f 297 324 325
f 297 325 341
f 297 341 351
f 297 351 346
f 297 346 329
f 297 329 313
f 297 313 326
f 297 326 309
f 297 309 307
f 297 307 308
f 297 308 304
f 297 304 303
f 297 303 298
f 298 303 302
f 298 302 299
f 309 326 310
f 310 326 313
f 311 327 312
f 311 313 327
f 312 327 313
f 312 313 328
f 312 328 314
f 313 329 330
f 313 330 328
f 314 328 330
f 314 330 315
f 315 330 331
f 315 331 332
f 315 332 316
f 316 332 318
f 318 332 333
f 318 333 323
f 318 323 319
f 320 334 335
f 320 335 321
f 320 323 333
f 320 333 334
f 321 335 336
f 321 336 337
f 321 337 338
f 321 338 339
f 321 339 322
f 324 340 325
f 325 340 342
f 325 342 343
f 325 343 344
f 325 344 345
f 325 345 341
f 329 346 347
f 329 347 348
f 329 348 330
f 330 348 331
f 331 348 334
f 331 334 332
f 332 334 333
f 334 348 335
f 335 348 347
f 335 347 349
f 335 349 350
f 335 350 336
f 341 345 351
f 345 352 351
f 346 351 353
f 346 353 354
f 346 354 347
f 347 354 355
f 347 355 349
f 351 352 356
f 351 356 353

