# https://github.com/mikedh/trimesh
v -1.39007013 -0.14945693 -1.08638459
v -0.90209591 -0.59572244 -0.17744684
v -0.91800222 -0.57347698 -0.17744684
v -1.39007013 -0.02629307 -0.67857420
v -1.39007013 -0.14918566 -1.08930615
v -0.78751631 -0.77721283 -1.55692187
v -0.80477061 -0.79457510 -0.61619108
v -0.80099628 -0.79077710 -0.51909335
v -0.83954891 -0.68280524 -0.17744684
v -0.92743821 -0.55747111 -0.17744684
v -1.39007013 0.05373626 -0.67857420
v -0.96410364 -0.49507526 -0.17744684
v -1.00912659 -0.39090152 -0.17744684
v -1.05738502 -0.23409819 -0.17744684
v -1.08973679 -0.07729487 -0.17744684
v -1.09081509 0.07923719 -0.17744684
v -1.39007013 -0.02629307 -1.50519368
v -0.85222009 -0.69881111 -1.55692187
v -0.82930413 -0.67059737 -1.71382487
v -0.75947803 -0.74899898 -1.71382487
v -0.68102466 -0.81980470 -1.71382487
v -0.70906300 -0.84340656 -1.55692187
v -0.71499417 -0.87162030 -0.61619108
v -0.63411446 -0.93862802 -0.61619108
v -0.17013454 -1.25901680 -0.17744684
v -0.69342627 -0.83092749 -0.17744684
v -0.77187958 -0.76120684 -0.17744684
v -1.05846332 0.23604052 -0.17744684
v -1.00885713 0.39284381 -0.17744684
v -0.97300042 0.47504347 -0.17744684
v -0.96356443 0.49593251 -0.17744684
v -0.95412850 0.51193837 -0.17744684
v -0.91719343 0.57433417 -0.17744684
v -0.85491607 0.66141697 -0.17744684
v -0.83874012 0.68366243 -0.17744684
v -1.39007013 0.15085669 -1.08638459
v -1.39007013 0.05373626 -1.50519368
v -0.78616832 -0.07729487 -1.93311110
v -0.96410364 -0.23409819 -1.79992402
v -0.95790290 -0.34505418 -1.79717429
v -0.93768298 -0.44977058 -1.78411341
v -0.90856628 -0.55068898 -1.72465180
v -0.96706925 -0.50050110 -1.67945404
v -0.80153542 -0.63695791 -1.79683051
v -0.64759442 -0.79159096 -1.79683051
v -0.56240110 -0.90146188 -1.72654221
v -0.51306448 -0.95843189 -1.68254743
v -0.60877215 -0.92180829 -1.55692187
v -0.16905616 -1.25766040 -0.23518993
v -0.11675395 -1.29238494 -0.17744684
v -0.82499059 0.69966830 -0.17744684
v -0.80045707 0.79217683 -0.52029633
v -0.80396183 0.79570356 -0.61619108
v -0.78643790 0.77806996 -1.55692187
v -0.85168088 0.69966830 -1.55692187
v -0.78616832 -0.06617213 -1.93311110
v -0.82876492 0.67172583 -1.71382487
v -0.90775744 0.55236000 -1.72430802
v -0.93687414 0.45089901 -1.78342586
v -0.95763326 0.34618261 -1.79717429
v -0.96383407 0.23604052 -1.79992402
v -0.78589869 0.07923719 -1.93311110
v -0.76513957 -0.23409819 -1.93311110
v -0.76109560 -0.25254565 -1.93311110
v -0.71795973 -0.40338059 -1.93311110
v -0.56968032 -0.55991271 -1.93311110
v -0.41466086 -0.70857749 -1.93311110
v -0.46507586 -0.93157456 -1.78720668
v -0.40819049 -0.97850708 -1.72654221
v -0.24454388 -1.07427096 -1.55692187
v -0.40118090 -1.02571082 -1.55692187
v -0.53031884 -0.96819816 -1.55692187
v -0.08763726 -1.30432148 -0.17744684
v -0.77080116 0.76206409 -0.17744684
v -0.70852379 0.81767775 -0.17744684
v -0.69261743 0.83178462 -0.17744684
v -0.63249689 0.93948515 -0.61619108
v -0.16932575 1.41532080 -1.47546287
v -0.17229135 1.41830493 -1.55692187
v -0.17121295 1.41721986 -1.64044306
v -0.75866919 0.75039876 -1.71382487
v -0.80126585 0.63862896 -1.79665874
v -0.71769015 0.40478041 -1.93311110
v -0.76486999 0.23604052 -1.93311110
v -0.78482033 0.08818960 -1.93311110
v -0.25748464 -0.75523857 -1.93311110
v -0.36074104 -0.94812296 -1.79717429
v -0.24454388 -1.02164149 -1.71382487
v -0.04800620 -1.10004321 -1.64680173
v -0.14775783 -1.09488869 -1.55692187
v 0.02909912 -1.31246014 -0.17744684
v -0.67185830 0.84779049 -0.17744684
v -0.59070901 0.91018628 -0.17744684
v -0.51225570 0.96200188 -0.17744684
v -0.48987898 0.97231075 -0.17744684
v -0.40118090 1.01300368 -0.17744684
v -0.24454388 1.06210641 -0.17744684
v -0.08763726 1.42969893 -1.46326125
v -0.08763726 1.45031678 -1.55692187
v -0.52843165 0.95142175 -0.17744684
v -0.08763726 1.43295440 -1.65505069
v -0.41412166 0.71024843 -1.93311110
v -0.64732478 0.79326196 -1.79683051
v -0.56941068 0.56131244 -1.93311110
v -0.24454388 -0.75822271 -1.93311110
v -0.24454388 -0.95517642 -1.80009579
v -0.09518603 -1.05148295 -1.70506036
v -0.08763726 -0.78752164 -1.93311110
v 0.08247972 -1.05229682 -1.70506036
v 0.03934389 -1.10004321 -1.64680173
v 0.06899978 -1.31463041 -0.17744684
v -0.09976921 1.09032015 -0.17744684
v 0.06899978 1.43295440 -1.46033969
v 0.06899978 1.45682759 -1.55692187
v 0.03826549 1.11283694 -0.17744684
v 0.06899978 1.43620986 -1.65814408
v -0.08763726 0.78702242 -1.93311110
v -0.10354359 0.78458083 -1.93311110
v -0.24454388 0.75935123 -1.93311110
v -0.08763726 -0.96277242 -1.80181432
v 0.06899978 -0.78969202 -1.93311110
v 0.06899978 -0.96304375 -1.80181432
v 0.22590641 -0.95599029 -1.80009579
v 0.35396593 -0.94839429 -1.79734606
v 0.45857036 -0.93889923 -1.79167494
v 0.22590641 -1.07834028 -1.55692187
v 0.14448750 -1.09651642 -1.55692187
v 0.39683220 -0.98149122 -1.72911994
v 0.15634986 -1.26498507 -0.25134426
v 0.15958505 -1.26878307 -0.17744684
v 0.38254342 -1.03276428 -1.55692187
v 0.52138693 -0.97253869 -1.55692187
v 0.15581066 1.41966145 -1.47168210
v 0.06765178 1.11066667 -0.17744684
v 0.16147224 1.42454453 -1.55692187
v 0.15769785 1.42128907 -1.64456766
v 0.40033696 0.71133363 -1.93311110
v 0.23695996 0.75907996 -1.93311110
v 0.22590641 0.76179282 -1.93311110
v 0.06899978 0.78892142 -1.93311110
v 0.04716226 0.78892142 -1.93311110
v 0.08868051 -0.78697910 -1.93311110
v 0.50089738 -0.96141602 -1.68701557
v 0.22590641 -0.76066442 -1.93311110
v 0.31703087 -0.74167430 -1.93311110
v 0.38254342 -0.72783871 -1.93311110
v 0.46369274 -0.70586457 -1.93311110
v 0.52084772 -0.68823097 -1.93311110
v 0.63165292 -0.79321869 -1.79717429
v 0.68880790 -0.81654923 -1.70179509
v 0.54780765 -0.90878655 -1.72911994
v 0.59957067 -0.92777656 -1.55692187
v 0.62410413 -0.94432496 -0.61619108
v 0.62221699 -0.94269723 -0.52957645
v 0.68449435 -0.83743829 -0.17744684
v 0.21889683 1.07214401 -0.17744684
v 0.25421429 1.06292028 -0.17744684
v 0.38254342 1.02141354 -0.17744684
v 0.40707694 1.01029081 -0.17744684
v 0.50251501 0.96688502 -0.17744684
v 0.58096832 0.91669715 -0.17744684
v 0.62140815 0.94409702 -0.53129503
v 0.79368193 0.80357083 -0.61619108
v 0.77642763 0.78675109 -1.63992751
v 0.73598774 0.74632949 -1.74441500
v 0.63138335 0.79488969 -1.79717429
v 0.67991118 0.53147097 -1.93311110
v 0.77696678 -0.78535137 -1.64164616
v 0.68018075 -0.53007124 -1.93311110
v 0.78505478 -0.63994204 -1.79717429
v 0.73625737 -0.74465844 -1.74613352
v 0.69635669 -0.85317283 -1.55692187
v 0.70255750 -0.88111536 -0.61619108
v 0.79449071 -0.80271364 -0.61619108
v 0.78802033 -0.79620283 -0.50465761
v 0.76294767 -0.77151577 -0.17744684
v 0.68395515 0.83829549 -0.17744684
v 0.74650209 0.78729369 -0.17744684
v 0.76240846 0.77427196 -0.17744684
v 0.78721155 0.79760256 -0.50534499
v 0.87186566 0.71377516 -0.61619108
v 1.36361417 0.15248439 -1.08638459
v 0.92955985 0.62397950 -0.17744684
v 0.80850988 0.69912576 -1.70076399
v 1.36361417 0.15167053 -1.09394618
v 1.36361417 0.09985492 -1.27972078
v 1.36361417 0.05753426 -1.38489564
v 0.94897098 0.50271464 -1.71382487
v 0.89397278 0.58111630 -1.71382487
v 0.93198626 0.47233061 -1.79253414
v 0.78505478 0.64161310 -1.79717429
v 0.83520017 0.07652432 -1.93311110
v 0.77858440 -0.78670789 -1.55692187
v 0.80904909 -0.69718338 -1.70179509
v 0.93225583 -0.47065952 -1.79270615
v 0.89451198 -0.57998790 -1.71382487
v 0.94924056 -0.50158618 -1.71382487
v 0.92093264 -0.61091444 -1.55692187
v 1.36361417 -0.15135593 -1.08638459
v 0.83520017 -0.07485327 -1.93311110
v 0.87294402 -0.71291803 -0.61619108
v 0.93549102 -0.63180350 -0.52699866
v 0.83034742 -0.69311416 -0.17744684
v 0.85110654 0.69587030 -0.17744684
v 0.91365348 0.63862896 -0.17744684
v 0.93495181 0.63320323 -0.49743968
v 1.36361417 0.05373626 -0.74628483
v 1.00936121 0.39284381 -0.17744684
v 1.36361417 -0.01517034 -1.38489564
v 1.03928669 0.07923719 -1.74389945
v 0.93899578 -0.39090152 -1.79648686
v 1.03928669 -0.07729487 -1.74063418
v 1.36361417 -0.03199007 -1.38472381
v 1.36361417 -0.09058787 -1.23985060
v 1.36361417 -0.15054207 -1.07572967
v 0.84652336 -0.67195389 -0.17744684
v 0.90880073 -0.58975417 -0.17744684
v 1.05007062 0.26805225 -0.17744684
v 1.06031539 0.23604052 -0.17744684
v 1.08026579 0.16008039 -0.17744684
v 1.08538806 0.14054782 -0.17744684
v 1.08889288 0.12481325 -0.17744684
v 1.10237278 0.06241746 -0.17744684
v 1.36361417 -0.02656440 -0.74628483
v 1.36361417 -0.08434833 -0.88978324
v 0.95490215 -0.51135257 -0.17744684
v 1.10237278 -0.04501180 -0.17744684
v 1.05654088 -0.23409819 -0.17744684
v 1.00855237 -0.39090152 -0.17744684
f 1 2 3
f 1 3 4
f 1 4 11
f 1 11 36
f 1 36 37
f 1 37 17
f 1 17 5
f 1 5 6
f 1 6 7
f 1 7 8
f 1 8 9
f 1 9 2
f 2 9 27
f 2 27 26
f 2 26 25
f 2 25 50
f 2 50 73
f 2 73 91
f 2 91 111
f 2 111 130
f 2 130 155
f 2 155 176
f 2 176 203
f 2 203 216
f 2 216 217
f 2 217 226
f 2 226 229
f 2 229 228
f 2 228 227
f 2 227 223
f 2 223 222
f 2 222 221
f 2 221 220
f 2 220 219
f 2 219 218
f 2 218 208
f 2 208 183
f 2 183 205
f 2 205 204
f 2 204 179
f 2 179 178
f 2 178 177
f 2 177 161
f 2 161 160
f 2 160 159
f 2 159 158
f 2 158 157
f 2 157 156
f 2 156 134
f 2 134 115
f 2 115 112
f 2 112 97
f 2 97 96
f 2 96 95
f 2 95 94
f 2 94 100
f 2 100 93
f 2 93 92
f 2 92 76
f 2 76 75
f 2 75 74
f 2 74 51
f 2 51 35
f 2 35 34
f 2 34 33
f 2 33 32
f 2 32 31
f 2 31 30
f 2 30 29
f 2 29 28
f 2 28 16
f 2 16 15
f 2 15 14
f 2 14 13
f 2 13 12
f 2 12 10
f 2 10 3
f 3 10 4
f 4 10 12
f 4 12 13
f 4 13 14
f 4 14 15
f 4 15 16
f 4 16 11
f 5 17 18
f 5 18 6
f 6 18 19
f 6 19 20
f 6 20 21
f 6 21 22
f 6 22 23
f 6 23 7
f 7 23 8
f 8 23 24
f 8 24 25
f 8 25 26
f 8 26 27
f 8 27 9
f 11 16 28
f 11 28 29
f 11 29 30
f 11 30 31
f 11 31 32
f 11 32 33
f 11 33 34
f 11 34 35
f 11 35 36
f 17 37 56
f 17 56 38
f 17 38 39
f 17 39 40
f 17 40 41
f 17 41 42
f 17 42 43
f 17 43 19
f 17 19 18
f 19 44 20
f 19 43 42
f 19 42 44
f 20 44 45
f 20 45 21
f 21 45 46
f 21 46 47
f 21 47 48
f 21 48 22
f 22 48 24
f 22 24 23
f 24 48 25
f 25 48 49
f 25 49 50
f 35 51 52
f 35 52 36
f 36 52 53
f 36 53 54
f 36 54 55
f 36 55 37
f 37 55 57
f 37 57 58
f 37 58 59
f 37 59 60
f 37 60 61
f 37 61 62
f 37 62 56
f 38 56 62
f 38 62 85
f 38 85 84
f 38 84 83
f 38 83 104
f 38 104 102
f 38 102 119
f 38 119 118
f 38 118 117
f 38 117 141
f 38 141 140
f 38 140 139
f 38 139 138
f 38 138 137
f 38 137 167
f 38 167 192
f 38 192 200
f 38 200 169
f 38 169 148
f 38 148 147
f 38 147 146
f 38 146 145
f 38 145 144
f 38 144 142
f 38 142 121
f 38 121 108
f 38 108 105
f 38 105 86
f 38 86 67
f 38 67 66
f 38 66 65
f 38 65 64
f 38 64 63
f 38 63 40
f 38 40 39
f 40 63 64
f 40 64 65
f 40 65 41
f 41 65 44
f 41 44 42
f 44 65 66
f 44 66 45
f 45 66 67
f 45 67 68
f 45 68 46
f 46 68 47
f 47 68 69
f 47 69 70
f 47 70 71
f 47 71 72
f 47 72 48
f 48 72 50
f 48 50 49
f 50 72 71
f 50 71 73
f 51 74 52
f 52 74 75
f 52 75 76
f 52 76 77
f 52 77 78
f 52 78 53
f 53 78 79
f 53 79 80
f 53 80 54
f 54 80 81
f 54 81 57
f 54 57 55
f 57 81 82
f 57 82 58
f 58 82 59
f 59 82 83
f 59 83 60
f 60 83 84
f 60 84 85
f 60 85 62
f 60 62 61
f 67 86 87
f 67 87 68
f 68 87 88
f 68 88 69
f 69 88 89
f 69 89 70
f 70 89 90
f 70 90 73
f 70 73 71
f 73 90 89
f 73 89 91
f 76 92 77
f 77 92 93
f 77 93 78
f 78 94 95
f 78 95 96
f 78 96 97
f 78 97 98
f 78 98 99
f 78 99 79
f 78 93 100
f 78 100 94
f 79 99 80
f 80 99 101
f 80 101 102
f 80 102 103
f 80 103 82
f 80 82 81
f 82 104 83
f 82 103 104
f 86 105 87
f 87 106 107
f 87 107 89
f 87 89 88
f 87 105 108
f 87 108 106
f 89 107 109
f 89 109 110
f 89 110 111
f 89 111 91
f 97 112 98
f 98 113 114
f 98 114 99
f 98 112 115
f 98 115 113
f 99 114 101
f 101 114 116
f 101 116 117
f 101 117 118
f 101 118 119
f 101 119 102
f 102 104 103
f 106 120 107
f 106 108 120
f 107 120 109
f 108 121 120
f 109 120 122
f 109 122 123
f 109 123 124
f 109 124 125
f 109 125 110
f 110 126 127
f 110 127 111
f 110 125 128
f 110 128 126
f 111 129 130
f 111 127 126
f 111 126 131
f 111 131 132
f 111 132 129
f 113 133 114
f 113 115 134
f 113 134 133
f 114 133 135
f 114 135 136
f 114 136 116
f 116 136 137
f 116 137 138
f 116 138 139
f 116 139 140
f 116 140 141
f 116 141 117
f 120 121 122
f 121 142 124
f 121 124 123
f 121 123 122
f 124 142 125
f 125 143 128
f 125 142 144
f 125 144 145
f 125 145 146
f 125 146 147
f 125 147 148
f 125 148 149
f 125 149 150
f 125 150 151
f 125 151 143
f 126 128 131
f 128 143 131
f 129 132 130
f 130 132 152
f 130 152 153
f 130 153 154
f 130 154 155
f 131 143 132
f 132 143 152
f 133 134 156
f 133 156 157
f 133 157 158
f 133 158 159
f 133 159 160
f 133 160 161
f 133 161 162
f 133 162 135
f 135 163 164
f 135 164 136
f 135 162 163
f 136 164 165
f 136 165 166
f 136 166 167
f 136 167 137
f 143 151 168
f 143 168 152
f 148 169 149
f 149 169 170
f 149 170 171
f 149 171 150
f 150 171 168
f 150 168 151
f 152 168 172
f 152 172 153
f 153 172 168
f 153 168 173
f 153 173 154
f 154 173 174
f 154 174 175
f 154 175 176
f 154 176 155
f 161 177 162
f 162 177 178
f 162 178 179
f 162 179 180
f 162 180 163
f 163 181 182
f 163 182 164
f 163 180 183
f 163 183 181
f 164 184 165
f 164 182 185
f 164 185 186
f 164 186 187
f 164 187 188
f 164 188 189
f 164 189 190
f 164 190 184
f 165 184 190
f 165 190 191
f 165 191 166
f 166 191 167
f 167 191 190
f 167 190 192
f 168 193 173
f 168 171 194
f 168 194 195
f 168 195 196
f 168 196 197
f 168 197 198
f 168 198 199
f 168 199 193
f 169 200 195
f 169 195 170
f 170 195 171
f 171 195 194
f 173 193 174
f 174 193 199
f 174 199 201
f 174 201 202
f 174 202 175
f 175 202 176
f 176 202 203
f 179 204 180
f 180 204 205
f 180 205 183
f 181 183 206
f 181 206 182
f 182 206 183
f 182 183 207
f 182 207 224
f 182 224 225
f 182 225 215
f 182 215 199
f 182 199 214
f 182 214 213
f 182 213 209
f 182 209 187
f 182 187 186
f 182 186 185
f 183 208 207
f 187 209 210
f 187 210 190
f 187 190 188
f 188 190 189
f 190 210 192
f 192 210 200
f 195 200 211
f 195 211 212
f 195 212 213
f 195 213 197
f 195 197 196
f 197 213 198
f 198 213 214
f 198 214 199
f 199 215 202
f 199 202 201
f 200 212 211
f 200 210 212
f 202 216 203
f 202 215 217
f 202 217 216
f 207 208 218
f 207 218 219
f 207 219 220
f 207 220 221
f 207 221 222
f 207 222 223
f 207 223 227
f 207 227 224
f 209 213 210
f 210 213 212
f 215 225 217
f 217 225 226
f 224 227 228
f 224 228 229
f 224 229 226
f 224 226 225

