# https://github.com/mikedh/trimesh
v -0.20638498 1.17719273 1.25642186
v -0.20201283 1.17719273 1.23636443
v -0.18643207 1.17719273 1.37907357
v -0.16818828 1.57453160 1.34673921
v -0.16818828 1.57453160 1.32715093
v -0.19390447 1.17719273 1.21787093
v -0.10586526 1.17719273 1.45738777
v -0.07271641 1.63518918 1.36613199
v -0.01047288 1.72644425 1.34501893
v -0.10260602 1.17719273 1.46055466
v -0.09429893 1.17719273 1.46794430
v -0.01047288 1.72644425 1.31714173
v -0.08507767 1.64997711 1.26991088
v -0.05514831 1.62088513 1.16188200
v -0.16520727 1.25419768 1.19562383
v -0.12780551 1.17719273 1.11371273
v 0.05435418 1.64142691 1.36879070
v 0.06902076 1.17719273 1.47666323
v -0.00773035 1.72644425 1.34501893
v -0.00773035 1.72644425 1.31714173
v 0.04107874 1.62088513 1.16188200
v 0.07581746 1.17719273 1.07723391
v -0.09692222 1.17719273 1.08497539
v -0.10455362 1.17719273 1.08560100
v 0.15376099 1.58501761 1.35115733
v 0.07923569 1.17719273 1.47666323
v 0.08376683 1.17719273 1.47533394
v 0.06894126 1.65524697 1.25650015
v 0.15376099 1.58501761 1.30032947
v 0.14354604 1.49085868 1.21329634
v 0.17212403 1.17719273 1.14862762
v 0.16973919 1.17719273 1.14679002
v 0.07879848 1.17719273 1.07727293
v 0.17506528 1.17719273 1.39123317
v 0.19966856 1.17719273 1.26596191
f 1 2 6
f 1 6 16
f 1 16 24
f 1 24 23
f 1 23 22
f 1 22 33
f 1 33 32
f 1 32 31
f 1 31 35
f 1 35 34
f 1 34 27
f 1 27 26
f 1 26 18
f 1 18 11
f 1 11 10
f 1 10 7
f 1 7 3
f 1 3 4
f 1 4 5
f 1 5 2
f 2 5 6
f 3 7 4
f 4 8 9
f 4 9 12
f 4 12 5
f 4 7 10
f 4 10 11
f 4 11 8
f 5 12 13
f 5 13 14
f 5 14 15
f 5 15 6
f 6 15 16
f 8 17 9
f 8 11 18
f 8 18 17
f 9 17 19
f 9 19 20
f 9 20 12
f 12 20 21
f 12 21 14
f 12 14 13
f 14 21 22
f 14 22 23
f 14 23 24
f 14 24 16
f 14 16 15
f 17 25 19
f 17 18 26
f 17 26 27
f 17 27 25
f 19 25 29
f 19 29 20
f 20 28 21
f 20 29 28
f 21 28 29
f 21 29 30
f 21 30 31
f 21 31 32
f 21 32 33
f 21 33 22
f 25 27 34
f 25 34 35
f 25 35 29
f 29 35 31
f 29 31 30

