# https://github.com/mikedh/trimesh
v -7.77221321 -0.02842735 -3.25965204
v -7.77221321 -0.05781421 -3.12507875
v -7.87394723 -0.01863169 -3.24092507
v -7.77221321 0.05773297 -3.25965204
v -1.65611875 -0.02842735 -3.25921642
v -1.65611875 -0.05781421 -3.12507875
v -7.14527989 -0.08973088 -2.49794222
v -7.30169539 -0.14235661 -1.08644915
v -7.45874655 -0.13547317 -1.08644915
v -7.61516205 -0.09982065 -1.08644915
v -7.88602773 -0.02842735 -3.12507875
v -7.87394723 0.03878889 -3.24092507
v -7.77221321 0.11450637 -3.12507875
v -1.65611875 0.11450637 -3.12507875
v -1.65611875 0.05773297 -3.25921642
v -1.49970325 -0.02695655 -3.25747441
v -1.49970325 -0.05487261 -3.12507875
v -1.39033982 -0.14962245 -1.08644915
v -7.14527989 -0.14265078 -1.08644915
v -7.77221321 -0.05781421 0.95218057
v -7.14527989 -0.08973088 0.32460842
v -7.88602773 -0.02842735 0.95218057
v -7.88602773 0.05773297 -3.12507875
v -7.77221321 0.11450637 0.95218057
v -7.45874655 0.13656856 -1.08644915
v -7.30169539 0.14395206 -1.08644915
v -7.14527989 0.12430197 -2.49794222
v -1.39033982 0.15086490 -1.08644915
v -1.49970325 0.11041753 -3.12507875
v -1.49970325 0.05567383 -3.25747441
v -1.40305646 -0.01666083 -3.23831182
v -1.39415476 -0.02548569 -3.12507875
v -1.39033982 -0.14935767 -1.08906222
v -1.39033982 -0.02636821 -0.67881029
v -1.39415476 -0.02548569 0.95218057
v -1.49970325 -0.05487261 0.95218057
v -1.65611875 -0.05781421 0.95218057
v -7.77221321 -0.03101595 1.10896485
v -7.87013135 -0.01501353 1.10896485
v -7.88602773 0.05773297 0.95218057
v -7.14527989 0.12430197 0.32460842
v -7.87013135 0.03231729 1.10896485
v -7.77221321 0.06370445 1.10896485
v -1.65611875 0.11450637 0.95218057
v -1.49970325 0.11041753 0.95218057
v -1.39415476 0.05361468 0.95218057
v -1.39033982 0.15077665 -1.08514258
v -1.39033982 0.05361468 -1.50497575
v -1.39415476 0.05361468 -3.12507875
v -1.40305646 0.03605318 -3.23831182
v -1.39033982 -0.02633876 -1.50497575
v -1.39033982 0.05361468 -0.67881029
v -1.40750730 -0.01254254 1.10896485
v -1.49970325 -0.02854502 1.10896485
v -1.65611875 -0.03101595 1.10896485
v -7.77221321 -0.00162909 1.18909900
v -7.85296457 -0.00074663 1.18866338
v -2.28368751 -0.00162909 1.18953438
v -7.85296457 0.00493074 1.18866338
v -7.77221321 0.00693105 1.18909900
v -2.28368751 0.00693105 1.18953438
v -1.65611875 0.06370445 1.10896485
v -1.49970325 0.05932144 1.10896485
v -1.40750730 0.02793427 1.10896485
v -1.42085984 0.00060656 1.18779237
v -1.49970325 -0.00059952 1.18866338
v -1.65611875 -0.00162909 1.18953438
v -1.65611875 0.00693105 1.18953438
v -1.49970325 0.00457773 1.18866338
v -1.42085984 0.00181258 1.18779237
f 1 2 3
f 1 3 12
f 1 12 4
f 1 4 15
f 1 15 5
f 1 5 6
f 1 6 2
f 2 7 8
f 2 8 9
f 2 9 10
f 2 10 11
f 2 11 3
f 2 6 7
f 3 11 23
f 3 23 12
f 4 12 13
f 4 13 14
f 4 14 15
f 5 15 30
f 5 30 16
f 5 16 6
f 6 16 17
f 6 17 18
f 6 18 7
f 7 19 8
f 7 18 19
f 8 20 9
f 8 19 21
f 8 21 20
f 9 20 10
f 10 20 22
f 10 22 11
f 11 22 40
f 11 40 23
f 12 23 13
f 13 23 40
f 13 40 24
f 13 24 25
f 13 25 26
f 13 26 27
f 13 27 28
f 13 28 14
f 14 28 29
f 14 29 30
f 14 30 15
f 16 30 50
f 16 50 31
f 16 31 17
f 17 31 32
f 17 32 18
f 18 32 33
f 18 33 51
f 18 51 48
f 18 48 28
f 18 28 47
f 18 47 52
f 18 52 34
f 18 34 35
f 18 35 36
f 18 36 37
f 18 37 21
f 18 21 19
f 20 38 39
f 20 39 22
f 20 21 37
f 20 37 55
f 20 55 38
f 22 39 42
f 22 42 40
f 24 41 26
f 24 26 25
f 24 40 42
f 24 42 43
f 24 43 62
f 24 62 44
f 24 44 28
f 24 28 41
f 26 41 28
f 26 28 27
f 28 44 45
f 28 45 46
f 28 46 47
f 28 48 49
f 28 49 29
f 29 49 50
f 29 50 30
f 31 50 49
f 31 49 32
f 32 49 48
f 32 48 51
f 32 51 33
f 34 52 46
f 34 46 35
f 35 46 64
f 35 64 53
f 35 53 36
f 36 54 37
f 36 53 54
f 37 54 55
f 38 56 57
f 38 57 39
f 38 55 67
f 38 67 58
f 38 58 56
f 39 57 59
f 39 59 42
f 42 59 43
f 43 59 60
f 43 60 61
f 43 61 68
f 43 68 62
f 44 62 45
f 45 62 63
f 45 63 64
f 45 64 46
f 46 52 47
f 53 64 70
f 53 70 65
f 53 65 54
f 54 65 66
f 54 66 55
f 55 66 67
f 56 60 59
f 56 59 57
f 56 58 61
f 56 61 60
f 58 67 68
f 58 68 61
f 62 68 69
f 62 69 63
f 63 69 70
f 63 70 64
f 65 70 69
f 65 69 66
f 66 69 68
f 66 68 67

