# https://github.com/mikedh/trimesh
v -0.04829734 1.17713904 0.12815617
v -0.09609895 1.17713904 0.01128250
v 0.05195171 1.17713904 0.12306341
v -0.00391013 2.51647133 0.09253030
v -0.01381749 2.51647133 0.09253030
v -0.05712254 1.17713904 -0.11373963
v -0.03602042 2.43187769 0.01128250
v -0.03021781 2.43187769 -0.08202222
v 0.09451045 1.17713904 0.01128250
v 0.02234158 2.43187769 0.01128250
v 0.00758316 2.52931253 0.01128250
v -0.02357558 2.52931253 0.01128250
v 0.05786627 1.17713904 -0.11383440
v -0.02381814 2.52944504 -0.07745055
v 0.01538217 2.43187769 -0.08202222
v 0.09439850 1.17713904 0.00005466
v 0.00780705 2.52944504 -0.07745055
v 0.06075826 1.17713904 -0.11383440
f 1 2 6
f 1 6 13
f 1 13 18
f 1 18 16
f 1 16 9
f 1 9 3
f 1 3 4
f 1 4 5
f 1 5 2
f 2 5 7
f 2 7 8
f 2 8 6
f 3 9 4
f 4 10 11
f 4 11 12
f 4 12 5
f 4 9 10
f 5 12 7
f 6 8 13
f 7 12 14
f 7 14 8
f 8 14 17
f 8 17 15
f 8 15 18
f 8 18 13
f 9 16 10
f 10 15 17
f 10 17 11
f 10 16 15
f 11 17 14
f 11 14 12
f 15 16 18

