# https://github.com/mikedh/trimesh
v 1.63762243 -0.02843319 -3.28028812
v 1.63762243 -0.05781567 -3.12498177
v 1.48101880 -0.02694475 -3.27772114
v 1.63762243 0.05771959 -3.28028812
v 7.75344627 -0.02843319 -3.28028812
v 1.36388409 -0.15147044 -1.08674653
v 1.48101880 -0.05486852 -3.12498177
v 7.75344627 -0.05781567 -3.12498177
v 7.12639469 -0.08972855 -2.49776671
v 1.48101880 0.05566553 -3.27772114
v 1.38425539 -0.01667427 -3.25162275
v 1.63762243 0.11451975 -3.12498177
v 7.75344627 0.05771959 -3.28028812
v 7.85530227 -0.01860932 -3.25461764
v 1.63762243 -0.05781567 0.95191660
v 1.48101880 -0.05486852 0.95191660
v 1.37534294 -0.02548604 0.95191660
v 1.36388409 -0.15078570 -1.07605048
v 1.36388409 -0.09068117 -1.23991364
v 1.37534294 -0.02548604 -3.12498177
v 7.12639469 -0.14256934 -1.08674653
v 7.12639469 -0.08972855 0.32470155
v 7.86676112 -0.02843319 -3.12498177
v 7.59684240 -0.09999903 -1.08674653
v 7.44023901 -0.13536514 -1.08674653
v 7.28299808 -0.14227166 -1.08674653
v 1.38425539 0.03607719 -3.25162275
v 1.48101880 0.11041157 -3.12498177
v 1.36388409 0.15262467 -1.08674653
v 7.75344627 0.11451975 -3.12498177
v 7.85530227 0.03878626 -3.25461764
v 1.63762243 -0.02843319 1.09053713
v 1.48101880 -0.02694475 1.08839806
v 7.12639469 -0.08231594 0.48171918
v 7.75344627 -0.05781567 0.95191660
v 1.38425539 -0.01667427 1.06743387
v 1.36388409 -0.02667681 -0.74661278
v 1.36388409 -0.08442960 -0.88993958
v 1.37534294 0.05361141 0.95191660
v 1.36388409 -0.03215442 -1.38452400
v 1.36388409 -0.01536443 -1.38495179
v 1.37534294 0.05361141 -3.12498177
v 7.86676112 0.05771959 -3.12498177
v 7.86676112 -0.02843319 0.95191660
v 1.36388409 0.15179112 -1.09444764
v 1.36388409 0.05361141 -0.74661278
v 1.48101880 0.11041157 0.95191660
v 1.63762243 0.11451975 0.95191660
v 7.75344627 0.11451975 0.95191660
v 7.12639469 0.12231937 0.48171918
v 7.28299808 0.14381290 -1.08674653
v 7.12639469 0.12431389 -2.49776671
v 7.44023901 0.13643009 -1.08674653
v 1.63762243 0.05771959 1.09053713
v 7.75344627 -0.02843319 1.09053713
v 1.48101880 0.05566553 1.08839806
v 7.85530227 -0.01860932 1.07042875
v 1.38425539 0.03607719 1.06743387
v 1.36388409 0.05742191 -1.38495179
v 1.36388409 0.10002202 -1.27970290
v 7.86676112 0.05771959 0.95191660
v 7.75344627 0.05771959 1.09053713
v 7.85530227 0.03878626 1.07042875
f 1 2 3
f 1 3 10
f 1 10 4
f 1 4 13
f 1 13 5
f 1 5 8
f 1 8 2
f 2 6 7
f 2 7 3
f 2 8 9
f 2 9 6
f 3 7 11
f 3 11 27
f 3 27 10
f 4 10 12
f 4 12 30
f 4 30 13
f 5 13 31
f 5 31 14
f 5 14 8
f 6 15 16
f 6 16 17
f 6 17 18
f 6 18 38
f 6 38 37
f 6 37 46
f 6 46 29
f 6 29 45
f 6 45 60
f 6 60 59
f 6 59 41
f 6 41 40
f 6 40 19
f 6 19 20
f 6 20 7
f 6 9 21
f 6 21 22
f 6 22 15
f 7 20 11
f 8 14 23
f 8 23 24
f 8 24 25
f 8 25 26
f 8 26 9
f 9 26 21
f 10 27 28
f 10 28 12
f 11 20 42
f 11 42 27
f 12 28 29
f 12 29 30
f 13 30 31
f 14 31 43
f 14 43 23
f 15 32 33
f 15 33 16
f 15 22 34
f 15 34 35
f 15 35 55
f 15 55 32
f 16 33 36
f 16 36 17
f 17 37 38
f 17 38 18
f 17 36 58
f 17 58 39
f 17 39 46
f 17 46 37
f 19 40 20
f 20 40 41
f 20 41 59
f 20 59 42
f 21 26 22
f 22 26 35
f 22 35 34
f 23 43 61
f 23 61 44
f 23 44 24
f 24 44 35
f 24 35 25
f 25 35 26
f 27 42 28
f 28 42 29
f 29 42 45
f 29 46 39
f 29 39 47
f 29 47 48
f 29 48 49
f 29 49 50
f 29 50 51
f 29 51 52
f 29 52 30
f 30 52 51
f 30 51 53
f 30 53 49
f 30 49 61
f 30 61 43
f 30 43 31
f 32 54 56
f 32 56 33
f 32 55 62
f 32 62 54
f 33 56 58
f 33 58 36
f 35 44 57
f 35 57 55
f 39 58 47
f 42 59 60
f 42 60 45
f 44 61 63
f 44 63 57
f 47 58 56
f 47 56 48
f 48 56 54
f 48 54 62
f 48 62 49
f 49 62 63
f 49 63 61
f 49 53 51
f 49 51 50
f 55 57 63
f 55 63 62

