# https://github.com/mikedh/trimesh
v 0.06900322 1.03828306 -2.34120702
v 0.06900322 0.97855222 -2.20929197
v 0.22580869 0.96336647 -2.22890479
v 0.22580869 1.01094862 -2.34120702
v 0.38261415 0.97430019 -2.45105036
v 0.22580869 0.98948606 -2.45356628
v 0.06900322 1.00143218 -2.46494520
v -0.08759428 1.00122968 -2.46528828
v -0.08759428 1.03747316 -2.34120702
v -0.08759428 0.97814727 -2.20997812
v 0.06900322 0.78903342 -1.93316824
v 0.22580869 0.76169893 -1.93316824
v 0.23703878 0.75926920 -1.93316824
v 0.32521585 0.95000295 -2.24989002
v 0.37949467 0.97268041 -2.34040648
v 0.48534875 0.95486242 -2.39215466
v 0.48534875 0.95486242 -2.43486840
v 0.66149497 0.82021493 -2.44676182
v 0.06401207 0.86658225 -2.51726525
v -0.07012523 0.86779709 -2.51726525
v -0.07885975 0.86779709 -2.51726525
v -0.40120521 0.97126307 -2.44899192
v -0.24439975 0.98867617 -2.45436682
v -0.24439975 1.00831644 -2.34120702
v -0.24439975 0.96154412 -2.23176390
v -0.24439975 0.75926920 -1.93316824
v -0.10339960 0.78457890 -1.93316824
v -0.08759428 0.78700863 -1.93316824
v 0.04716692 0.78883092 -1.93316824
v 0.40029115 0.71148454 -1.93316824
v 0.42961418 0.92752793 -2.28757182
v 0.53837978 0.89513158 -2.34040648
v 0.65629581 0.81576041 -2.34120702
v 0.73469858 0.74550079 -2.34120702
v 0.81081365 0.67200148 -2.44681908
v 0.96553949 0.39298763 -2.45127916
v 0.70059236 -0.39829408 -2.51726525
v -0.71294443 -0.39343461 -2.51726525
v -0.99536064 0.23606762 -2.45556758
v -0.97768363 0.39298763 -2.44773390
v -0.82337372 0.66511722 -2.44470338
v -0.67363911 0.81576041 -2.44493206
v -0.49749289 0.95162273 -2.43155194
v -0.49749289 0.95162273 -2.39884471
v -0.39475829 0.96923828 -2.34440908
v -0.33798389 0.94818066 -2.25280626
v -0.41409902 0.71026970 -1.93316824
v 0.67979584 0.53148213 -1.93316824
v 0.62530909 0.79105816 -2.25486471
v 0.53941963 0.81798764 -2.21815499
v 0.78149065 0.63616295 -2.25412130
v 0.80686234 0.66693951 -2.34120702
v 0.94619876 0.49827583 -2.38900973
v 0.94619876 0.49827583 -2.43629784
v 1.09094221 0.01374742 -2.42200278
v 0.98300856 0.23606762 -2.45070729
v 0.98196870 -0.23428737 -2.45059289
v 0.69684899 -0.53759842 -2.51726525
v -0.74185156 -0.52767709 -2.51726525
v -0.74226749 -0.54610258 -2.51726525
v -0.99515264 -0.23428737 -2.45562484
v -1.00367924 0.07935013 -2.44801984
v -1.03362622 0.07935013 -2.34120702
v -1.01158186 0.23606762 -2.34120702
v -0.95855083 0.48693713 -2.43017953
v -0.95855083 0.48693713 -2.40153228
v -0.81630297 0.65641073 -2.34120702
v -0.74372322 0.73476945 -2.34120702
v -0.66532050 0.80887620 -2.34120702
v -0.44259018 0.92530069 -2.29426199
v -0.55301950 0.88824732 -2.34440908
v -0.55821860 0.81252078 -2.22593141
v -0.63766117 0.78599624 -2.26149762
v -0.64431605 0.63596050 -2.09870523
v -0.56944872 0.56144880 -1.93316824
v 0.83514555 0.07651544 -1.93316824
v 0.94203946 0.34034349 -2.24623049
v 0.91895535 0.44502431 -2.28442690
v 0.88692878 0.55011007 -2.33851957
v 0.96512356 0.39278512 -2.33851957
v 1.09094221 0.01374742 -2.41599887
v 1.09094221 -0.01054983 -2.42200278
v 0.96595542 -0.39100493 -2.45145069
v 0.85947744 -0.54873476 -2.47638127
v 0.69664099 -0.54124311 -2.51726525
v -0.82378965 -0.66394447 -2.44498931
v -0.87432515 -0.54185050 -2.46723244
v -0.97809962 -0.39100493 -2.44807698
v -0.72459048 -0.56169328 -2.51726525
v -0.67426298 -0.81458754 -2.44521799
v -1.03321023 -0.07736737 -2.34120702
v -1.00347125 -0.07736737 -2.44801984
v -0.98017921 -0.07736737 -2.21569621
v -0.97997121 0.07935013 -2.21575335
v -0.96645357 0.23606762 -2.23685286
v -0.95459953 0.32536016 -2.25583679
v -0.97477217 0.38367366 -2.34601017
v -0.93234728 0.42983850 -2.29694944
v -0.89512161 0.54342831 -2.34601017
v -0.79384273 0.62887379 -2.26212663
v -0.69318777 0.68475756 -2.20957791
v -0.71772760 0.40493378 -1.93316824
v 0.83514555 -0.07493763 -1.93316824
v 0.95722088 0.23606762 -2.22290088
v 1.00858813 0.23606762 -2.34120702
v 1.09094221 -0.01054983 -2.41599887
v 0.94640675 -0.49690047 -2.43664091
v 0.81122958 -0.67062623 -2.44739083
v 0.66232683 -0.81883963 -2.44681908
v 0.38261415 -0.97292489 -2.45127916
v 0.22580869 -0.98811069 -2.45293727
v -0.74476307 -0.73602644 -2.34120702
v -0.82004634 -0.65746510 -2.34120702
v -0.95896682 -0.48576435 -2.40078888
v -0.95896682 -0.48576435 -2.43057986
v -1.01158186 -0.23428737 -2.34120702
v -0.24439975 -0.98730092 -2.45385221
v -0.40120521 -0.97009020 -2.44939213
v -0.49853275 -0.95024742 -2.39752956
v -0.66636030 -0.80790578 -2.34120702
v -0.49853275 -0.95024742 -2.43223809
v -0.96666145 -0.23428737 -2.23650979
v -0.76514360 -0.23428737 -1.93316824
v -0.92714818 -0.07736737 -2.13730197
v -0.92714818 0.07935013 -2.13735911
v -0.76493566 0.23606762 -1.93316824
v -0.81963041 0.54970512 -2.22758964
v 0.94224745 -0.33917063 -2.24594455
v 0.95742888 -0.23428737 -2.22261495
v 0.68021177 -0.53010688 -1.93316824
v 1.00775638 -0.23428737 -2.34120702
v 0.96553949 -0.39140982 -2.33800484
v 0.94640675 -0.49690047 -2.38820919
v 0.80894200 -0.66657665 -2.34120702
v 0.73573838 -0.74493537 -2.34120702
v 0.65733567 -0.81479005 -2.34120702
v 0.48659654 -0.95348711 -2.39089664
v 0.48659654 -0.95348711 -2.43544015
v 0.22580869 -1.01058577 -2.34120702
v 0.06900322 -1.03022605 -2.34120702
v 0.06900322 -0.99499484 -2.44361690
v -0.79841796 -0.63033317 -2.25840984
v -0.63849303 -0.78482332 -2.26063994
v -0.89824106 -0.54185050 -2.34560984
v -0.93276321 -0.42846319 -2.29626330
v -0.97518805 -0.38209588 -2.34560984
v -0.95480752 -0.32398482 -2.25555085
v -0.08759428 -0.99459007 -2.44401723
v -0.08759428 -1.02941604 -2.34120702
v -0.24439975 -1.00795359 -2.34120702
v -0.39559015 -0.96806541 -2.34360854
v -0.44404594 -0.92392539 -2.29300398
v -0.55385136 -0.88747952 -2.34360854
v -0.76098430 -0.25271281 -1.93316824
v -0.78635604 -0.07736737 -1.93316824
v -0.78635604 -0.06623114 -1.93316824
v -0.78614805 0.07935013 -1.93316824
v 0.91937128 -0.44385150 -2.28362635
v 0.52091076 -0.68824172 -1.93316824
v 0.78377824 -0.63559765 -2.25269187
v 0.88880049 -0.54873476 -2.33800484
v 0.62614095 -0.78968291 -2.25406416
v 0.53900370 -0.89436366 -2.33966307
v 0.43127790 -0.92635507 -2.28631392
v 0.38053449 -0.97150760 -2.33966307
v 0.32667161 -0.94862764 -2.24891794
v 0.22580869 -0.96239605 -2.22747536
v 0.06900322 -0.97494968 -2.20820561
v -0.08759428 -0.97454479 -2.20883450
v -0.82316579 -0.54792487 -2.22450197
v -0.69401964 -0.68479953 -2.20729067
v -0.41472291 -0.70869189 -1.93316824
v -0.56986465 -0.56007349 -1.93316824
v -0.71793560 -0.40335605 -1.93316824
v -0.55821860 -0.81155036 -2.22478790
v -0.24439975 -0.96057376 -2.23033434
v -0.33964761 -0.94680535 -2.25177693
v 0.46372041 -0.70585721 -1.93316824
v 0.38261415 -0.72792728 -1.93316824
v 0.31689728 -0.74169580 -1.93316824
v 0.22580869 -0.76072857 -1.93316824
v 0.08875988 -0.78705073 -1.93316824
v 0.06900322 -0.78968291 -1.93316824
v -0.08759428 -0.78745561 -1.93316824
v -0.25750152 -0.75526171 -1.93316824
v -0.24439975 -0.75829890 -1.93316824
f 1 2 3
f 1 3 4
f 1 4 5
f 1 5 6
f 1 6 7
f 1 7 8
f 1 8 9
f 1 9 10
f 1 10 2
f 2 11 12
f 2 12 3
f 2 10 11
f 3 12 13
f 3 13 14
f 3 14 4
f 4 14 15
f 4 15 16
f 4 16 17
f 4 17 5
f 5 17 18
f 5 18 19
f 5 19 7
f 5 7 6
f 7 19 20
f 7 20 8
f 8 20 21
f 8 21 22
f 8 22 23
f 8 23 9
f 9 23 22
f 9 22 24
f 9 24 25
f 9 25 10
f 10 25 26
f 10 26 27
f 10 27 28
f 10 28 29
f 10 29 11
f 11 29 28
f 11 28 27
f 11 27 26
f 11 26 47
f 11 47 75
f 11 75 102
f 11 102 126
f 11 126 157
f 11 157 156
f 11 156 155
f 11 155 123
f 11 123 154
f 11 154 174
f 11 174 173
f 11 173 172
f 11 172 185
f 11 185 186
f 11 186 184
f 11 184 183
f 11 183 182
f 11 182 181
f 11 181 180
f 11 180 179
f 11 179 178
f 11 178 159
f 11 159 130
f 11 130 103
f 11 103 76
f 11 76 48
f 11 48 30
f 11 30 13
f 11 13 12
f 13 30 14
f 14 30 31
f 14 31 15
f 15 31 16
f 16 31 32
f 16 32 33
f 16 33 18
f 16 18 17
f 18 33 34
f 18 34 35
f 18 35 19
f 19 35 36
f 19 36 37
f 19 37 58
f 19 58 85
f 19 85 89
f 19 89 60
f 19 60 59
f 19 59 38
f 19 38 21
f 19 21 20
f 21 38 39
f 21 39 40
f 21 40 41
f 21 41 42
f 21 42 22
f 22 43 24
f 22 42 43
f 24 43 44
f 24 44 45
f 24 45 46
f 24 46 25
f 25 46 47
f 25 47 26
f 30 48 49
f 30 49 50
f 30 50 31
f 31 50 49
f 31 49 32
f 32 49 33
f 33 49 34
f 34 49 48
f 34 48 51
f 34 51 52
f 34 52 35
f 35 52 53
f 35 53 54
f 35 54 36
f 36 54 55
f 36 55 56
f 36 56 37
f 37 56 57
f 37 57 58
f 38 59 39
f 39 59 60
f 39 60 61
f 39 61 62
f 39 62 63
f 39 63 40
f 40 63 64
f 40 64 65
f 40 65 41
f 41 65 66
f 41 66 67
f 41 67 68
f 41 68 42
f 42 68 69
f 42 69 44
f 42 44 43
f 44 70 45
f 44 69 71
f 44 71 70
f 45 70 46
f 46 70 47
f 47 70 72
f 47 72 73
f 47 73 74
f 47 74 75
f 48 76 77
f 48 77 78
f 48 78 53
f 48 53 79
f 48 79 51
f 51 79 52
f 52 79 53
f 53 80 81
f 53 81 55
f 53 55 54
f 53 78 80
f 55 81 106
f 55 106 82
f 55 82 56
f 56 82 57
f 57 83 84
f 57 84 85
f 57 85 58
f 57 82 83
f 60 86 87
f 60 87 88
f 60 88 61
f 60 89 90
f 60 90 86
f 61 88 91
f 61 91 92
f 61 92 62
f 62 92 63
f 63 91 93
f 63 93 94
f 63 94 64
f 63 92 91
f 64 94 95
f 64 95 96
f 64 96 97
f 64 97 66
f 64 66 65
f 66 98 99
f 66 99 67
f 66 97 98
f 67 100 68
f 67 99 100
f 68 100 73
f 68 73 69
f 69 73 71
f 70 71 73
f 70 73 72
f 73 100 101
f 73 101 74
f 74 101 100
f 74 100 102
f 74 102 75
f 76 103 106
f 76 106 81
f 76 81 104
f 76 104 77
f 77 104 105
f 77 105 80
f 77 80 78
f 80 105 81
f 81 105 104
f 82 106 133
f 82 133 107
f 82 107 83
f 83 107 84
f 84 107 108
f 84 108 109
f 84 109 85
f 85 109 110
f 85 110 111
f 85 111 89
f 86 90 112
f 86 112 113
f 86 113 114
f 86 114 115
f 86 115 87
f 87 115 88
f 88 115 116
f 88 116 91
f 89 117 118
f 89 118 90
f 89 111 117
f 90 119 120
f 90 120 112
f 90 118 121
f 90 121 119
f 91 116 93
f 93 116 122
f 93 122 123
f 93 123 124
f 93 124 125
f 93 125 94
f 94 125 126
f 94 126 95
f 95 126 96
f 96 98 97
f 96 126 102
f 96 102 98
f 98 127 99
f 98 102 127
f 99 127 100
f 100 127 102
f 103 128 129
f 103 129 106
f 103 130 128
f 106 129 131
f 106 131 132
f 106 132 133
f 107 133 108
f 108 133 134
f 108 134 135
f 108 135 109
f 109 135 136
f 109 136 137
f 109 137 138
f 109 138 110
f 110 138 139
f 110 139 140
f 110 140 111
f 111 140 141
f 111 141 117
f 112 142 113
f 112 120 143
f 112 143 142
f 113 142 144
f 113 144 114
f 114 145 146
f 114 146 116
f 114 116 115
f 114 144 145
f 116 146 147
f 116 147 122
f 117 148 149
f 117 149 118
f 117 141 148
f 118 149 150
f 118 150 121
f 119 121 150
f 119 150 151
f 119 151 152
f 119 152 153
f 119 153 120
f 120 153 143
f 122 147 154
f 122 154 123
f 123 155 124
f 124 155 156
f 124 156 125
f 125 156 157
f 125 157 126
f 128 158 132
f 128 132 131
f 128 131 129
f 128 130 158
f 130 159 135
f 130 135 160
f 130 160 161
f 130 161 133
f 130 133 158
f 132 158 133
f 133 161 134
f 134 160 135
f 134 161 160
f 135 159 162
f 135 162 136
f 136 162 163
f 136 163 137
f 137 163 159
f 137 159 164
f 137 164 165
f 137 165 139
f 137 139 138
f 139 165 166
f 139 166 167
f 139 167 168
f 139 168 140
f 140 168 169
f 140 169 149
f 140 149 148
f 140 148 141
f 142 170 145
f 142 145 144
f 142 143 171
f 142 171 172
f 142 172 173
f 142 173 174
f 142 174 170
f 143 153 152
f 143 152 175
f 143 175 172
f 143 172 171
f 145 147 146
f 145 170 174
f 145 174 147
f 147 174 154
f 149 169 150
f 150 169 176
f 150 176 177
f 150 177 151
f 151 177 152
f 152 177 172
f 152 172 175
f 159 163 162
f 159 178 166
f 159 166 164
f 164 166 165
f 166 178 167
f 167 178 179
f 167 179 180
f 167 180 181
f 167 181 182
f 167 182 168
f 168 182 183
f 168 183 169
f 169 184 176
f 169 183 184
f 172 177 176
f 172 176 185
f 176 184 186
f 176 186 185

