# https://github.com/mikedh/trimesh
v 0.06918317 -0.07802279 -3.42300964
v 0.06918317 -0.17442251 -3.38160567
v -0.05737617 -0.17755270 -3.38479733
v 0.06229496 -0.07802279 -3.42247773
v 0.16800598 -0.07802279 -3.38266972
v 0.15073955 -0.15895322 -3.36449451
v 0.66735509 -0.49183849 -2.61346077
v 0.69674481 -0.54142201 -2.51726525
v -0.10090962 -0.19025473 -3.29312370
v -0.23757168 -0.19855645 -3.12254286
v -0.23757168 -0.19733162 -3.12688713
v -0.16189325 -0.15110511 -3.35261406
v -0.10090962 -0.09031660 -3.40598705
v 0.69160163 -0.54142201 -2.51726525
v -0.10081781 -0.07802279 -3.40598705
v 0.20474310 -0.07802279 -3.28221849
v 0.62088267 -0.30933676 -2.73731791
v 0.62088267 -0.32385342 -2.73731791
v 0.65624212 -0.38210160 -2.66142544
v 0.69692850 -0.53770206 -2.51726525
v -0.23757168 -0.23330577 -2.97111268
v -0.23757168 -0.08441920 -3.18371797
v -0.19550768 -0.07802279 -3.31821437
v -0.17778203 -0.07802279 -3.37344902
v -0.12442140 -0.07802279 -3.39933754
v 0.59002349 -0.50195473 -2.51726525
v 0.25066448 -0.07802279 -3.12679856
v 0.32726136 -0.13014670 -3.07546485
v 0.62878114 -0.30516326 -2.65495331
v 0.70069402 -0.39834210 -2.51726525
v 0.34829332 -0.12651755 -2.96863030
v -0.23757168 -0.22491331 -2.96880745
v -0.23757168 -0.08219635 -3.18070345
v -0.23757168 -0.07802279 -3.17494061
v 0.57872683 -0.40110936 -2.51726525
v 0.24956237 -0.07802279 -3.12023786
v 0.62960774 -0.30602515 -2.56460944
v 0.59075825 -0.38423366 -2.51726525
v 0.22329533 -0.07802279 -2.98210647
v 0.22200953 -0.07802279 -2.97944671
v -0.23757168 -0.08573476 -2.97563434
v -0.23757168 -0.07802279 -3.00648785
v 0.58423739 -0.38423366 -2.51726525
v 0.59424829 -0.30602515 -2.56460944
v -0.23022425 -0.07802279 -2.97723028
v -0.23325506 -0.07802279 -2.98024457
v -0.23757168 -0.07852180 -3.00435999
f 1 2 3
f 1 3 4
f 1 4 15
f 1 15 25
f 1 25 24
f 1 24 23
f 1 23 34
f 1 34 42
f 1 42 46
f 1 46 45
f 1 45 40
f 1 40 39
f 1 39 36
f 1 36 27
f 1 27 16
f 1 16 5
f 1 5 6
f 1 6 2
f 2 6 7
f 2 7 8
f 2 8 3
f 3 9 10
f 3 10 11
f 3 11 12
f 3 12 13
f 3 13 4
f 3 8 14
f 3 14 9
f 4 13 15
f 5 16 17
f 5 17 18
f 5 18 7
f 5 7 6
f 7 18 19
f 7 19 20
f 7 20 8
f 8 20 30
f 8 30 38
f 8 38 43
f 8 43 35
f 8 35 26
f 8 26 14
f 9 21 10
f 9 14 21
f 10 21 32
f 10 32 41
f 10 41 47
f 10 47 42
f 10 42 34
f 10 34 33
f 10 33 22
f 10 22 11
f 11 22 23
f 11 23 24
f 11 24 12
f 12 24 13
f 13 24 25
f 13 25 15
f 14 26 21
f 16 27 28
f 16 28 17
f 17 29 30
f 17 30 19
f 17 19 18
f 17 28 31
f 17 31 29
f 19 30 20
f 21 26 32
f 22 33 23
f 23 33 34
f 26 35 32
f 27 36 31
f 27 31 28
f 29 37 30
f 29 31 37
f 30 37 38
f 31 36 39
f 31 39 40
f 31 40 37
f 32 35 41
f 35 43 41
f 37 44 43
f 37 43 38
f 37 40 45
f 37 45 44
f 41 45 46
f 41 46 47
f 41 43 45
f 42 47 46
f 43 44 45

