# https://github.com/mikedh/trimesh
v -0.23762106 -0.22492120 -2.96875346
v -0.23762106 -0.23335046 -2.97110216
v -0.23762106 -0.08574370 -2.97566916
v -0.29257256 -0.23429754 -2.85111863
v -0.30754584 -0.32460431 -2.85796912
v -0.30754584 -0.32460431 -2.91858078
v -0.23762106 -0.19859157 -3.12253327
v -0.23762106 -0.07854569 -3.00437659
v -0.35320697 -0.14152837 -2.87030015
v -0.29786014 -0.14152837 -2.87030015
v -0.43662256 -0.27663327 -2.68703001
v -0.43662256 -0.35547996 -2.68703001
v -0.60597399 -0.53263647 -2.51726525
v -0.71296138 -0.56015003 -2.51726525
v -0.72462373 -0.56176012 -2.51726525
v -0.40143777 -0.32801389 -2.91740643
v -0.23762106 -0.19736037 -3.12690466
v -0.23762106 -0.07802477 -3.00646448
v -0.35844516 -0.13011573 -2.96855762
v -0.64422257 -0.30793519 -2.56685064
v -0.60958140 -0.30793519 -2.56685064
v -0.59510225 -0.38365642 -2.51726525
v -0.59208785 -0.39734221 -2.51726525
v -0.60360197 -0.51009537 -2.51726525
v -0.74241379 -0.54622750 -2.51726525
v -0.67911082 -0.49375776 -2.61199943
v -0.48757130 -0.32119472 -2.89809427
v -0.34006211 -0.18746305 -3.06831569
v -0.23762106 -0.08441774 -3.18379743
v -0.23762106 -0.07802477 -3.17498945
v -0.25709126 -0.07802477 -3.12259871
v -0.34006211 -0.13589307 -3.06831569
v -0.64422257 -0.30793519 -2.61108613
v -0.71063879 -0.38952852 -2.51726525
v -0.74187020 -0.52780632 -2.51726525
v -0.67421857 -0.39109128 -2.62902810
v -0.48757130 -0.29311297 -2.89809427
v -0.71310960 -0.39355379 -2.51726525
f 1 2 7
f 1 7 17
f 1 17 29
f 1 29 30
f 1 30 18
f 1 18 8
f 1 8 3
f 1 3 4
f 1 4 2
f 2 4 5
f 2 5 6
f 2 6 7
f 3 8 9
f 3 9 10
f 3 10 4
f 4 10 11
f 4 11 12
f 4 12 5
f 5 12 13
f 5 13 6
f 6 13 14
f 6 14 15
f 6 15 16
f 6 16 17
f 6 17 7
f 8 18 9
f 9 18 19
f 9 19 20
f 9 20 21
f 9 21 10
f 10 21 11
f 11 21 22
f 11 22 23
f 11 23 12
f 12 23 24
f 12 24 13
f 13 24 23
f 13 23 22
f 13 22 34
f 13 34 38
f 13 38 35
f 13 35 25
f 13 25 15
f 13 15 14
f 15 25 26
f 15 26 27
f 15 27 16
f 16 27 17
f 17 28 29
f 17 27 28
f 18 30 31
f 18 31 19
f 19 31 32
f 19 32 33
f 19 33 20
f 20 33 34
f 20 34 22
f 20 22 21
f 25 35 36
f 25 36 26
f 26 36 27
f 27 37 32
f 27 32 28
f 27 36 37
f 28 32 29
f 29 32 30
f 30 32 31
f 32 37 36
f 32 36 33
f 33 36 38
f 33 38 34
f 35 38 36

