# https://github.com/mikedh/trimesh
v -691.23407784 -368.82588627 648.31804085
v -691.23407784 -336.59945240 641.25423523
v -514.48890996 -311.59402747 605.68294131
v -509.11414788 -311.59402747 605.68294131
v -537.89657501 -363.95683910 653.19542818
v -508.37410706 -363.29665002 654.58296654
v -691.23407784 -368.82588627 674.05048107
v -691.23407784 -303.96036218 650.16808564
v -514.48890996 -310.27361114 605.68294131
v -491.70444722 -333.00955975 632.21425192
v -509.11414788 -310.27361114 605.68294131
v -455.71669903 -320.25925730 643.98726765
v -508.37410706 -363.29665002 662.99226621
v -449.17347556 -325.70598900 682.83818902
v -293.34327800 -232.61652277 835.76116517
v -293.34327800 -232.78157004 887.52035572
v -537.89657501 -363.95683910 665.97756445
v -537.89657501 -357.10714835 691.58385267
v -691.23407784 -357.14844833 699.65677883
v -691.23407784 -278.25346727 675.77438340
v -520.13635884 49.49903675 963.11990694
v -463.35044067 -258.44720314 655.92846059
v -456.10614799 -285.14440076 646.29981886
v -459.80619939 -258.44720314 655.92846059
v -293.34327800 -140.84747288 793.71470496
v -293.34327800 -180.46000114 790.72940672
v -293.34327800 -205.75425879 809.18781025
v -293.34327800 -232.69904641 888.27719135
v -691.23407784 -331.52405797 729.29953013
v -691.23407784 4.10966316 957.19133569
v -691.23407784 12.65112661 968.41775639
v -691.23407784 32.12727712 994.27631997
v -672.38334351 48.54997677 1014.20635047
v -640.36821900 50.11798310 1010.29602030
v -537.46811627 52.71755396 988.55798932
v -486.71913410 49.74660766 962.74148912
v -460.31252503 48.67378131 963.62447675
v -293.34327800 -134.16284848 802.96492887
v -293.34327800 -182.68821564 907.36629761
v -486.71913410 -16.76944640 1024.17136572
v -537.89657501 -23.90795080 1030.22605079
v -691.23407784 -24.07300761 1031.36130425
v -691.23407784 -49.69736934 1011.01083071
v -691.23407784 -75.48677835 985.40453295
v -691.23407784 -305.98222942 754.90582789
v -691.23407784 32.00349167 995.03315560
v -672.38334351 48.54997677 1017.02345240
v -589.15188281 51.97482215 1003.02199316
v -640.36821900 50.11798310 1018.91554149
v -484.57703123 51.27335217 988.89438192
v -589.15188281 51.97482215 1020.51333954
v -537.89657501 52.63503032 1020.42921276
v -460.31252503 48.67378131 970.98259250
v -293.34327800 -125.58014229 836.77028571
v -293.34327800 -176.41622850 904.67530950
v -459.84517101 5.01746132 1017.35980683
v -459.84517101 -7.56778432 1017.35980683
v -484.57703123 22.14163096 1024.21339093
v -537.89657501 22.18289278 1034.85115321
v -691.23407784 -23.70164171 1031.40332947
v -691.23407784 25.93783270 1029.09079734
v -640.36821900 22.18289278 1033.75796315
v -500.15613473 51.02576218 1018.62125045
v -589.15188281 22.18289278 1035.18750764
v -466.03784079 39.18327697 1005.12432285
v -293.34327800 -133.29633122 885.12371590
v -293.34327800 -125.82771320 838.74646340
f 1 2 3
f 1 3 4
f 1 4 5
f 1 5 6
f 1 6 13
f 1 13 7
f 1 7 19
f 1 19 29
f 1 29 45
f 1 45 44
f 1 44 43
f 1 43 42
f 1 42 60
f 1 60 61
f 1 61 46
f 1 46 32
f 1 32 31
f 1 31 30
f 1 30 20
f 1 20 8
f 1 8 2
f 2 8 9
f 2 9 3
f 3 9 11
f 3 11 4
f 4 10 6
f 4 6 5
f 4 11 12
f 4 12 10
f 6 10 12
f 6 12 14
f 6 14 15
f 6 15 16
f 6 16 13
f 7 13 17
f 7 17 18
f 7 18 19
f 8 20 21
f 8 21 9
f 9 22 24
f 9 24 11
f 9 21 22
f 11 23 12
f 11 24 25
f 11 25 23
f 12 23 26
f 12 26 27
f 12 27 15
f 12 15 14
f 13 18 17
f 13 16 28
f 13 28 18
f 15 27 26
f 15 26 25
f 15 25 38
f 15 38 54
f 15 54 67
f 15 67 66
f 15 66 55
f 15 55 39
f 15 39 28
f 15 28 16
f 18 28 19
f 19 28 29
f 20 30 21
f 21 30 31
f 21 31 32
f 21 32 33
f 21 33 34
f 21 34 35
f 21 35 36
f 21 36 22
f 22 36 24
f 23 25 26
f 24 36 37
f 24 37 25
f 25 37 38
f 28 39 40
f 28 40 41
f 28 41 42
f 28 42 43
f 28 43 44
f 28 44 45
f 28 45 29
f 32 46 47
f 32 47 33
f 33 47 49
f 33 49 34
f 34 48 35
f 34 49 51
f 34 51 48
f 35 50 36
f 35 48 51
f 35 51 52
f 35 52 50
f 36 50 37
f 37 50 53
f 37 53 54
f 37 54 38
f 39 55 56
f 39 56 57
f 39 57 40
f 40 57 58
f 40 58 59
f 40 59 41
f 41 59 60
f 41 60 42
f 46 61 47
f 47 61 49
f 49 61 62
f 49 62 51
f 50 52 63
f 50 63 53
f 51 62 64
f 51 64 52
f 52 64 59
f 52 59 63
f 53 63 65
f 53 65 66
f 53 66 67
f 53 67 54
f 55 66 56
f 56 65 58
f 56 58 57
f 56 66 65
f 58 65 63
f 58 63 59
f 59 64 60
f 60 64 62
f 60 62 61

