# https://github.com/mikedh/trimesh
v -293.34329709 178.28852537 1133.77283041
v -293.34329709 224.82384003 1130.41692013
v -436.99307095 328.75899985 1142.09890031
v -484.05948360 329.58744248 1141.24931147
v -434.48621513 277.58436443 1138.02081279
v -477.91914494 294.10605810 1135.21714671
v -324.07306444 189.98153669 1130.16205875
v -520.53527397 249.03828622 990.19056027
v -520.76059174 248.94360542 957.82083606
v -293.34329709 178.28852537 1104.03687741
v -293.34329709 234.19718142 1126.12641632
v -455.07601484 359.83777500 1131.94620295
v -474.84897561 359.83777500 1131.94620295
v -564.24982237 356.54763171 1067.97137684
v -564.24982237 342.98470810 1067.97137684
v -542.73054391 327.38613787 1087.04487155
v -563.01051737 308.82881667 1065.88984982
v -528.84439637 291.19463798 1083.90133939
v -514.81743953 251.61833309 1020.52127891
v -546.13870898 265.72567604 990.19056027
v -570.22118224 293.49064248 953.14802108
v -530.61888355 288.87496806 785.30971849
v -523.46459584 294.76882366 743.38198621
v -486.67897922 278.17611463 785.30971849
v -293.34329709 183.66162706 1103.18725040
v -486.67897922 292.47281917 738.62424289
v -455.21686231 297.84592085 747.88486814
v -451.07636677 329.58744248 739.94110941
v -293.34329709 234.19718142 1111.64077007
v -307.11676666 252.96752964 1118.60749018
v -457.52653168 408.78742129 1024.85418963
v -486.67897922 403.93505443 1060.70731208
v -520.70425276 410.61000273 1032.41563721
v -537.91405689 368.87972408 1079.35601237
v -537.82954841 392.14738140 1046.26411091
v -554.61684833 398.27794853 990.19056027
v -567.91151287 363.10425287 1041.42140108
v -581.06532994 329.58744248 990.19056027
v -569.51698309 327.38613787 1045.88179975
v -567.68619510 297.63289384 1031.73594323
v -538.89987462 277.34767199 1043.20554528
v -571.65767368 291.33666872 990.19056027
v -551.49037819 329.58744248 785.30971849
v -527.12624817 330.17919268 729.40608181
v -512.87393540 347.64771337 708.12362939
v -489.63647057 330.17919268 713.64601412
v -293.34329709 230.43363416 1108.83706582
v -453.58318442 364.16938795 745.16614949
v -307.11676666 252.96752964 1118.01276273
v -448.54137963 370.22892063 785.30971849
v -407.53075899 360.12179830 960.49705236
v -452.56919719 412.00656830 990.19056027
v -486.67897922 420.10170943 990.19056027
v -486.67897922 411.34378365 1035.09189168
v -528.98524383 414.51556164 990.19056027
v -572.95331766 372.66691768 990.19056027
v -526.16856176 413.04803795 952.85067644
v -533.15390886 374.93925675 785.30971849
v -570.98164403 369.28211268 951.36387688
v -522.47873994 364.80846900 734.07887769
v -512.87393540 355.76651993 708.12362939
v -508.70527037 347.64771337 708.12362939
v -508.70527037 355.76651993 708.12362939
v -489.63647057 368.28797388 730.46808694
v -486.67897922 389.94607679 785.30971849
v -453.30152766 411.50947982 956.07917511
v -486.67897922 415.20201171 949.40979964
f 1 2 3
f 1 3 4
f 1 4 5
f 1 5 6
f 1 6 7
f 1 7 8
f 1 8 9
f 1 9 10
f 1 10 25
f 1 25 47
f 1 47 29
f 1 29 11
f 1 11 2
f 2 11 3
f 3 11 12
f 3 12 13
f 3 13 4
f 4 6 5
f 4 13 14
f 4 14 15
f 4 15 16
f 4 16 17
f 4 17 6
f 6 17 18
f 6 18 7
f 7 18 19
f 7 19 8
f 8 19 20
f 8 20 9
f 9 20 21
f 9 21 22
f 9 22 23
f 9 23 24
f 9 24 10
f 10 24 26
f 10 26 27
f 10 27 28
f 10 28 25
f 11 29 49
f 11 49 30
f 11 30 12
f 12 30 31
f 12 31 32
f 12 32 13
f 13 32 33
f 13 33 34
f 13 34 14
f 14 34 35
f 14 35 36
f 14 36 37
f 14 37 38
f 14 38 39
f 14 39 15
f 15 39 17
f 15 17 16
f 17 39 38
f 17 38 40
f 17 40 41
f 17 41 18
f 18 41 19
f 19 41 20
f 20 42 21
f 20 41 40
f 20 40 42
f 21 42 38
f 21 38 43
f 21 43 22
f 22 43 23
f 23 43 44
f 23 44 45
f 23 45 46
f 23 46 26
f 23 26 24
f 25 28 47
f 26 46 27
f 27 46 28
f 28 46 48
f 28 48 47
f 29 47 48
f 29 48 50
f 29 50 51
f 29 51 49
f 30 49 52
f 30 52 31
f 31 52 53
f 31 53 54
f 31 54 32
f 32 54 33
f 33 35 34
f 33 54 53
f 33 53 55
f 33 55 36
f 33 36 35
f 36 56 37
f 36 55 57
f 36 57 58
f 36 58 59
f 36 59 56
f 37 56 38
f 38 42 40
f 38 56 59
f 38 59 43
f 43 59 58
f 43 58 60
f 43 60 44
f 44 60 61
f 44 61 45
f 45 61 63
f 45 63 62
f 45 62 46
f 46 62 63
f 46 63 48
f 48 63 64
f 48 64 65
f 48 65 66
f 48 66 50
f 49 51 52
f 50 66 51
f 51 66 52
f 52 66 53
f 53 66 67
f 53 67 57
f 53 57 55
f 57 67 65
f 57 65 58
f 58 65 60
f 60 64 61
f 60 65 64
f 61 64 63
f 65 67 66

