# https://github.com/mikedh/trimesh
v 278.17059004 168.89386601 1135.49769654
v 232.96863136 -12.14190110 1143.78983326
v 278.17059004 163.92672183 1132.81502950
v 278.17059004 214.32160049 1132.57112291
v 200.13008358 22.24235216 1214.51632946
v 200.40981275 -12.14190110 1215.00406629
v 204.43770665 -12.14190110 1206.59001444
v 212.54943266 -12.14190110 1189.39616538
v 219.26260826 -12.14190110 1174.64115313
v 237.27625444 -12.14190110 1126.96180591
v 245.83554330 -12.14190110 1092.57410780
v 246.05931519 -12.14190110 887.71114868
v 278.17059004 163.92672183 1103.79274181
v 278.17059004 215.98533729 1131.47365781
v -293.34325892 234.19019631 1126.10817104
v 128.07547978 57.92868106 1228.05188515
v 167.23559759 54.57706014 1225.61304835
v 174.50819335 22.24235216 1228.17380027
v 174.78790344 -12.14190110 1228.29579173
v 246.05931519 -12.14190110 870.76116804
v 278.17059004 174.02979813 1101.47582013
v 245.89148150 -12.14190110 614.68251149
v 245.83554330 -12.14190110 580.41674818
v 278.17059004 215.98533729 1107.32904371
v -293.34325892 234.19019631 1111.59706537
v -293.34325892 224.78635705 1130.37619270
v -167.07986381 54.57706014 1225.61304835
v -128.03165103 57.92868106 1228.05188515
v -76.84378969 57.95279021 1228.05188515
v 76.83168025 57.95279021 1228.05188515
v 128.07547978 22.24235216 1235.73421725
v 143.34792515 -12.14190110 1233.41737191
v 245.83554330 73.45705658 580.41674818
v 224.91284355 -12.14190110 525.66469218
v 52.10486324 46.52352436 -9.78356077
v 244.38101652 124.67175145 580.41674818
v 223.90587962 167.06132219 580.41674818
v 179.26334111 192.11409706 580.41674818
v 102.50952775 201.59026855 400.06419623
v 76.83168025 217.48030524 580.41674818
v -293.34325892 230.42867205 1108.79240687
v 25.58787594 219.09585236 580.41674818
v -25.59998539 219.09585236 580.41674818
v -76.84378969 217.43209647 580.41674818
v -102.52163720 201.56614508 400.06419623
v -115.16475817 168.91797039 273.00043256
v -223.75014584 166.98898996 580.41674818
v -244.05746814 124.67175145 580.41674818
v -293.34325892 178.27358180 1133.79057948
v -199.80653520 22.24235216 1213.90660118
v -174.18464498 22.24235216 1228.17380027
v -128.03165103 22.24235216 1235.73421725
v 25.58787594 -12.14190110 1235.97812383
v 128.07547978 -12.14190110 1235.85620871
v 52.10486324 49.36878625 -9.78356077
v 206.06004804 -12.14190110 501.27624785
v 105.08290442 -12.14190110 385.67502477
v 78.56591712 -12.14190110 368.72504412
v 54.62230171 -12.14190110 360.55491794
v 25.58787594 -12.14190110 355.06751606
v 24.52495711 42.37619161 14.11707039
v 40.91625952 46.52352436 -9.78356077
v 109.83806172 161.03322255 238.49074299
v 217.58430959 161.44313065 538.83445002
v 115.37642061 169.03854956 273.00043256
v 76.83168025 176.19991782 273.00043256
v 76.83168025 187.60506974 324.21613894
v 2.25963679 202.14484112 390.18687666
v -293.34325892 183.65065317 1103.18301352
v -245.51199492 73.45705658 580.41674818
v -2.32769100 202.14484112 390.18687666
v -25.59998539 187.67740198 324.21613894
v -76.84378969 186.01366518 324.21613894
v -109.79422342 161.03322255 238.49074299
v -217.42859489 161.39492189 538.83445002
v -200.08626437 -12.14190110 1214.51632946
v -293.34325892 178.27358180 1104.03664839
v -245.67980952 -12.14190110 904.53917604
v -245.56793312 -12.14190110 1041.35830599
v -245.45603764 -12.14190110 1092.57410780
v -232.53320659 -12.14190110 1143.78983326
v -212.28184157 -12.14190110 1188.90842856
v -191.63887099 -12.14190110 1219.15009648
v -174.46435506 -12.14190110 1228.29579173
v -128.03165103 -12.14190110 1235.85620871
v -59.94899816 -12.14190110 1235.97812383
v 40.91625952 49.36878625 -9.78356077
v -16.64910289 162.50408611 237.02745618
v -25.65592836 -12.14190110 355.18946935
v -1.82420366 45.02855641 29.48181094
v -78.74585070 -12.14190110 360.18909624
v -91.44491942 -12.14190110 367.38369152
v -123.55621335 -12.14190110 386.40666817
v 25.58787594 177.93600593 273.00043256
v 25.58787594 188.83481314 324.21613894
v -245.51199492 -12.14190110 580.41674818
v -230.07171587 -12.14190110 539.07833275
v -1.82420366 51.05665128 29.48181094
v -109.79422342 141.74332277 238.49074299
v -245.67980952 -12.14190110 836.49540413
v -245.56793312 -12.14190110 631.51053944
v -224.70119066 -12.14190110 525.66469218
f 1 2 3
f 1 3 13
f 1 13 21
f 1 21 24
f 1 24 14
f 1 14 4
f 1 4 5
f 1 5 6
f 1 6 7
f 1 7 8
f 1 8 9
f 1 9 2
f 2 10 3
f 2 9 8
f 2 8 7
f 2 7 6
f 2 6 19
f 2 19 32
f 2 32 54
f 2 54 53
f 2 53 86
f 2 86 85
f 2 85 84
f 2 84 83
f 2 83 76
f 2 76 82
f 2 82 81
f 2 81 80
f 2 80 79
f 2 79 78
f 2 78 100
f 2 100 101
f 2 101 96
f 2 96 97
f 2 97 102
f 2 102 93
f 2 93 92
f 2 92 91
f 2 91 89
f 2 89 60
f 2 60 59
f 2 59 58
f 2 58 57
f 2 57 56
f 2 56 34
f 2 34 23
f 2 23 22
f 2 22 20
f 2 20 12
f 2 12 11
f 2 11 10
f 3 10 11
f 3 11 12
f 3 12 20
f 3 20 13
f 4 14 15
f 4 15 16
f 4 16 17
f 4 17 5
f 5 17 18
f 5 18 6
f 6 18 19
f 13 20 22
f 13 22 23
f 13 23 21
f 14 24 25
f 14 25 15
f 15 25 41
f 15 41 69
f 15 69 77
f 15 77 49
f 15 49 26
f 15 26 27
f 15 27 28
f 15 28 29
f 15 29 30
f 15 30 16
f 16 30 31
f 16 31 17
f 17 31 18
f 18 31 32
f 18 32 19
f 21 23 33
f 21 33 24
f 23 34 35
f 23 35 55
f 23 55 33
f 24 33 36
f 24 36 37
f 24 37 38
f 24 38 39
f 24 39 40
f 24 40 25
f 25 40 42
f 25 42 43
f 25 43 44
f 25 44 45
f 25 45 46
f 25 46 47
f 25 47 48
f 25 48 41
f 26 49 50
f 26 50 51
f 26 51 27
f 27 51 52
f 27 52 28
f 28 52 29
f 29 52 31
f 29 31 30
f 31 52 86
f 31 86 53
f 31 53 54
f 31 54 32
f 33 55 36
f 34 56 35
f 35 57 58
f 35 58 59
f 35 59 60
f 35 60 61
f 35 61 62
f 35 62 87
f 35 87 55
f 35 56 57
f 36 55 63
f 36 63 64
f 36 64 37
f 37 64 65
f 37 65 39
f 37 39 38
f 39 65 66
f 39 66 67
f 39 67 68
f 39 68 42
f 39 42 40
f 41 48 70
f 41 70 69
f 42 68 71
f 42 71 43
f 43 71 45
f 43 45 44
f 45 71 72
f 45 72 73
f 45 73 46
f 46 73 74
f 46 74 75
f 46 75 47
f 47 75 48
f 48 75 74
f 48 74 70
f 49 76 50
f 49 77 100
f 49 100 78
f 49 78 79
f 49 79 80
f 49 80 81
f 49 81 82
f 49 82 76
f 50 76 51
f 51 76 83
f 51 83 84
f 51 84 52
f 52 85 86
f 52 84 85
f 55 87 88
f 55 88 63
f 60 89 61
f 61 90 62
f 61 89 91
f 61 91 92
f 61 92 93
f 61 93 90
f 62 90 98
f 62 98 87
f 63 88 94
f 63 94 66
f 63 66 65
f 63 65 64
f 66 94 67
f 67 94 95
f 67 95 68
f 68 95 71
f 69 70 96
f 69 96 77
f 70 74 97
f 70 97 96
f 71 95 72
f 72 95 94
f 72 94 73
f 73 94 74
f 74 94 88
f 74 88 87
f 74 87 98
f 74 98 90
f 74 90 99
f 74 99 97
f 77 96 101
f 77 101 100
f 90 93 102
f 90 102 99
f 97 99 102

