# https://github.com/mikedh/trimesh
v 583.75021085 329.58828223 990.19750722
v 571.72565453 370.55157201 949.59637482
v 574.26816117 374.65790536 990.19750722
v 569.39251058 365.39357761 1041.43632556
v 565.23476218 358.18245470 1069.11121070
v 573.66988390 329.58828223 1041.43632556
v 564.15794707 303.04731459 1067.83976653
v 567.80719414 297.56384423 1041.43632556
v 572.98194519 289.62659348 990.19750722
v 571.03767765 292.40588799 951.58827857
v 554.61604676 329.58828223 785.32708586
v 556.29110098 400.27244785 990.19750722
v 534.72468252 375.43409320 785.32708586
v 545.13399708 391.00815827 1041.43632556
v 565.26468750 329.58828223 1069.15357944
v 512.55994861 406.55714561 1067.20404444
v 532.95985236 377.48725988 1078.26553238
v 510.76526948 349.59419477 1117.67999628
v 513.33770143 315.44145237 1121.49425245
v 533.40854122 294.85966836 1088.01316923
v 359.23175928 201.11491791 1118.99380920
v 534.63490657 270.44698605 1039.57152806
v 547.25774016 264.01203191 990.19750722
v 513.33770143 302.94715640 1121.49425245
v 532.18217588 288.39969376 785.32708586
v 524.46488002 294.43401512 743.03070729
v 528.50300349 328.03590653 729.21446818
v 513.12830057 355.92897163 708.06627890
v 523.41799022 365.21833893 734.08828661
v 530.65667189 414.81992957 990.19750722
v 519.49952983 409.83721201 1041.43632556
v 527.42618838 413.19239706 952.43592074
v 486.68623152 389.18030936 785.32708586
v 511.48313350 406.55714561 1067.20404444
v 476.63582989 359.48447307 1131.15715180
v 486.68623152 419.72749032 990.19750722
v 490.90379238 331.34101248 1137.85339898
v 486.68623152 295.26030115 1133.10672497
v 333.02897824 192.05092563 1127.93621080
v 278.17060912 163.93250459 1132.89480489
v 515.37170674 251.44263638 1021.22051594
v 521.65319823 248.81357917 990.19750722
v 521.68308537 248.81357917 957.52165925
v 486.68623152 292.80650169 739.42831395
v 489.73723949 328.03590653 714.97440799
v 513.12830057 344.06064531 708.06627890
v 278.17060912 163.93250459 1103.82136934
v 508.85088909 355.92897163 708.06627890
v 489.73723949 368.07273300 731.20637194
v 486.68623152 415.02024596 949.68115049
v 454.56087193 363.29033183 746.37883088
v 454.23184615 411.11419084 956.88593716
v 491.32255593 410.28792389 1040.58868339
v 477.32380676 402.45081226 1057.11734309
v 455.63768704 359.48447307 1131.15715180
v 437.30171393 328.36142067 1140.98960249
v 453.90282037 411.33954678 990.19750722
v 458.32978208 408.30987587 1022.95813086
v 435.05834592 277.15733707 1137.81103023
v 278.17060912 168.91518398 1135.60720639
v 456.17611368 298.61546711 749.30311430
v 452.52686662 329.58828223 741.92879537
v 508.85088909 344.06064531 708.06627890
v 278.17060912 174.04811975 1101.53276983
v 450.01428529 368.94907905 785.32708586
v 278.17060912 216.01293423 1107.29659918
v 408.49661379 358.18245470 962.14118884
v 278.17060912 216.01293423 1131.53862322
v 278.17060912 214.36036217 1132.55577856
f 1 2 3
f 1 3 4
f 1 4 5
f 1 5 6
f 1 6 7
f 1 7 8
f 1 8 9
f 1 9 10
f 1 10 11
f 1 11 2
f 2 12 3
f 2 11 13
f 2 13 12
f 3 12 4
f 4 14 5
f 4 12 14
f 5 15 6
f 5 14 16
f 5 16 17
f 5 17 18
f 5 18 19
f 5 19 15
f 6 15 7
f 7 20 21
f 7 21 22
f 7 22 23
f 7 23 8
f 7 15 24
f 7 24 20
f 8 23 9
f 9 23 10
f 10 23 25
f 10 25 11
f 11 25 26
f 11 26 27
f 11 27 28
f 11 28 29
f 11 29 13
f 12 30 31
f 12 31 16
f 12 16 14
f 12 13 32
f 12 32 30
f 13 29 33
f 13 33 32
f 15 19 24
f 16 34 55
f 16 55 35
f 16 35 18
f 16 18 17
f 16 31 36
f 16 36 34
f 18 35 37
f 18 37 19
f 19 37 24
f 20 24 21
f 21 24 38
f 21 38 39
f 21 39 40
f 21 40 41
f 21 41 22
f 22 41 23
f 23 41 42
f 23 42 43
f 23 43 25
f 24 37 38
f 25 43 26
f 26 44 45
f 26 45 46
f 26 46 27
f 26 43 47
f 26 47 44
f 27 46 28
f 28 46 63
f 28 63 48
f 28 48 49
f 28 49 29
f 29 49 33
f 30 36 31
f 30 32 36
f 32 50 36
f 32 33 50
f 33 49 51
f 33 51 52
f 33 52 50
f 34 36 53
f 34 53 54
f 34 54 55
f 35 55 56
f 35 56 37
f 36 57 58
f 36 58 53
f 36 50 52
f 36 52 57
f 37 56 59
f 37 59 38
f 38 59 60
f 38 60 40
f 38 40 39
f 40 60 69
f 40 69 68
f 40 68 66
f 40 66 64
f 40 64 47
f 40 47 43
f 40 43 42
f 40 42 41
f 44 61 45
f 44 47 61
f 45 62 51
f 45 51 48
f 45 48 63
f 45 63 46
f 45 61 62
f 47 64 62
f 47 62 61
f 48 51 49
f 51 65 52
f 51 62 66
f 51 66 65
f 52 67 66
f 52 66 57
f 52 65 67
f 53 58 54
f 54 58 55
f 55 68 69
f 55 69 56
f 55 58 68
f 56 60 59
f 56 69 60
f 57 66 68
f 57 68 58
f 62 64 66
f 65 66 67

