# https://github.com/mikedh/trimesh
v 278.17059004 -182.72787432 937.54250390
v 278.17059004 -221.54658017 930.36367285
v 278.17059004 -132.55063170 911.41959368
v 245.83554330 -12.14190110 1092.58490992
v 245.83554330 -285.16266512 1092.58490992
v 245.22016585 -336.38005099 1092.58490992
v 278.17059004 -236.02558484 923.78309999
v 278.17059004 -113.61974982 886.89198137
v 278.17059004 -108.58537865 836.44085914
v 245.89148150 -12.14190110 1041.43586752
v 237.27625444 -12.14190110 1126.98341016
v 233.08052685 -233.90367391 1143.83369064
v 232.80081677 -285.16266512 1143.83369064
v 223.84992233 -338.41878938 1147.92162603
v 218.08779156 -375.24040036 1133.46430195
v 224.74500987 -381.89740873 1092.58490992
v 248.01730486 -336.38005099 887.68962078
v 278.17059004 -259.65799511 888.08844049
v 278.17059004 -251.58636673 908.12929771
v 246.05931519 -12.14190110 870.83935938
v 246.05931519 -12.14190110 887.68962078
v 278.17059004 -113.70296051 822.18293537
v 245.83554330 -12.14190110 580.39650852
v 245.89148150 -12.14190110 614.79498967
v 232.96863136 -12.14190110 1143.83369064
v 233.08052685 -29.03407321 1143.83369064
v 212.66132815 -233.90367391 1189.69831945
v 212.38161807 -285.16266512 1189.39921899
v 200.52168915 -285.16266512 1215.02357118
v 209.69633638 -322.69158610 1182.51952657
v 201.36083848 -356.85037846 1167.66336370
v 167.17965939 -370.58048686 1182.61922673
v 180.15842865 -389.96903711 1144.83073037
v 158.95603790 -414.93285669 1121.99813520
v 187.31914801 -407.52687571 1092.58490992
v 187.43102441 -407.56851923 1041.43586752
v 224.80096715 -381.93901408 1041.43586752
v 247.96136666 -336.38005099 836.44085914
v 224.85690535 -381.93901408 938.93838242
v 224.85690535 -381.93901408 631.64526061
v 224.85690535 -381.89740873 580.39650852
v 278.17059004 -259.20031719 836.14175868
v 278.17059004 -136.42001495 788.68181287
v 232.12950111 -131.51046937 477.99870448
v 220.66117776 -131.51046937 426.74994284
v 206.22788172 -103.67583306 400.22821291
v 224.91284355 -12.14190110 525.65805059
v 278.17059004 -171.86861127 778.61152464
v 278.17059004 -181.18843827 776.61740703
v 219.26260826 -12.14190110 1174.64275627
v 212.66132815 -29.03407321 1189.69831945
v 200.57762735 -233.90367391 1215.32270981
v 174.89977984 -285.16266512 1228.38415538
v 167.79501776 -323.48210680 1225.79179867
v 184.57792812 -340.16625217 1199.66890753
v 128.07547978 -403.53268595 1155.10041891
v 128.07547978 -355.47736380 1215.82124876
v 128.07547978 -377.90318081 1190.19685840
v 128.07547978 -426.12492435 1092.58490992
v 161.69723870 -415.80656900 1092.58490992
v 128.07547978 -419.63433737 1129.57576687
v 161.80911510 -415.84817435 1041.43586752
v 187.43102441 -407.56851923 631.64526061
v 245.33204225 -336.38005099 580.39650852
v 187.31914801 -407.52687571 580.39650852
v 215.34659075 -372.41116035 529.14774688
v 278.17059004 -233.36278530 804.23591500
v 232.40921120 -182.72787432 477.99870448
v 220.94088785 -182.72787432 426.74994284
v 154.76031031 -203.73907132 244.88666826
v 110.06183360 -95.77062607 234.31787925
v 206.06004804 -12.14190110 501.32985768
v 232.52108760 -233.90367391 477.99870448
v 278.17059004 -205.90260667 786.28887555
v 212.54943266 -12.14190110 1189.39921899
v 204.43770665 -12.14190110 1206.64830010
v 200.57762735 -29.03407321 1215.32270981
v 174.95573712 -233.90367391 1228.38415538
v 128.07547978 -285.16266512 1235.96178705
v 128.07547978 -329.88946400 1228.28445523
v 76.83168025 -406.94440084 1161.48161054
v 76.83168025 -424.29425086 1135.85722018
v 76.83168025 -355.51896915 1217.01768879
v 76.83168025 -381.31489569 1191.39333660
v 76.83168025 -435.44475134 1092.58490992
v 128.07547978 -426.20813505 1041.43586752
v 161.80911510 -415.84817435 631.64526061
v 231.01064170 -336.38005099 529.14774688
v 212.94103823 -283.08235955 426.94936224
v 221.05278333 -233.90367391 426.74994284
v 161.69723870 -415.80656900 580.39650852
v 158.95603790 -414.93285669 549.68714305
v 105.02695667 -415.14088343 444.89640169
v 177.36128964 -398.08227084 531.24156465
v 103.62838717 -311.70750702 245.28550705
v 207.51457482 -313.70462098 444.09874319
v 154.76031031 -210.02163156 244.88666826
v 126.17341877 -229.78462994 233.22110121
v 129.02651506 -185.09943641 235.01581851
v 115.76801663 -131.51046937 232.92196257
v 76.83168025 -131.51046937 217.56729892
v 10.31543057 -44.84446810 234.31787925
v 105.08290442 -12.14190110 385.67118868
v 200.40981275 -12.14190110 1215.02357118
v 174.78790344 -12.14190110 1228.28445523
v 174.95573712 -29.03407321 1228.38415538
v 128.07547978 -12.14190110 1235.96178705
v 25.58787594 -131.51046937 1236.06148721
v -128.03165103 -285.16266512 1235.96178705
v -128.03165103 -329.88946400 1228.28445523
v 25.58787594 -355.51896915 1217.11738895
v 25.58787594 -407.27724362 1162.17954980
v 25.58787594 -425.12639600 1136.55515944
v 25.58787594 -437.10900344 1092.58490992
v 25.58787594 -381.64777665 1191.49303676
v 76.83168025 -435.52796204 1041.43586752
v 128.07547978 -426.20813505 631.64526061
v 198.39584671 -298.80954375 409.99938159
v 206.39571541 -264.65075139 400.12851276
v 128.07547978 -426.12492435 580.39650852
v 76.83168025 -418.01172879 435.52405272
v 76.83168025 -404.78088457 409.89968144
v 76.83168025 -435.48635669 580.39650852
v 13.72795418 -323.02442889 232.32376164
v 107.37657100 -285.16266512 238.80461526
v 76.83168025 -233.90367391 221.15669536
v 76.83168025 -182.72787432 219.06287759
v 25.58787594 -182.72787432 217.46759877
v -76.84378969 -131.51046937 217.56729892
v -10.15971349 -44.84446810 234.31787925
v 25.58787594 -12.14190110 355.06152336
v 54.62230171 -12.14190110 360.54533726
v 78.56591712 -12.14190110 368.72120803
v 143.34792515 -12.14190110 1233.46913049
v -128.03165103 -12.14190110 1235.96178705
v -25.59998539 -131.51046937 1236.06148721
v -174.63218874 -233.90367391 1228.38415538
v -174.57625054 -285.16266512 1228.38415538
v -167.58336486 -323.48210680 1225.79179867
v -128.03165103 -355.47736380 1215.82124876
v -76.84378969 -355.51896915 1217.01768879
v -25.59998539 -355.51896915 1217.11738895
v -25.59998539 -407.27724362 1162.17954980
v -25.59998539 -425.12639600 1136.55515944
v -25.59998539 -437.10900344 1092.58490992
v 25.58787594 -437.19221413 1041.43586752
v -25.59998539 -381.64777665 1191.49303676
v 76.83168025 -435.52796204 631.64526061
v 25.58787594 -426.33295109 477.99870448
v 25.58787594 -419.88396946 429.84083851
v 25.58787594 -411.35468225 404.21644814
v 25.58787594 -437.19221413 631.64526061
v 25.58787594 -437.10900344 580.39650852
v -13.96383790 -323.02442889 232.32376164
v -25.59998539 -233.90367391 218.86347728
v 25.58787594 -233.90367391 219.06287759
v 28.72068470 -287.32620048 227.23874836
v -25.59998539 -182.72787432 217.56729892
v -76.84378969 -182.72787432 218.96317743
v -126.07364227 -229.65981390 233.42050152
v -128.98268630 -185.43227920 235.11551867
v -115.61230194 -131.51046937 232.92196257
v -109.90610936 -95.89545166 234.51727956
v -123.55621335 -12.14190110 386.36912793
v -91.44491942 -12.14190110 367.42502967
v -78.74585070 -12.14190110 360.14649847
v -25.65592836 -12.14190110 355.16122352
v -174.46435506 -12.14190110 1228.28445523
v -174.63218874 -29.03407321 1228.38415538
v -200.25407897 -233.90367391 1214.72447071
v -200.19814077 -285.16266512 1214.42533208
v -184.42221342 -340.08304148 1199.46946905
v -167.13582110 -370.53888151 1182.61922673
v -128.03165103 -377.90318081 1190.19685840
v -76.84378969 -381.31489569 1191.39333660
v -76.84378969 -406.94440084 1161.48161054
v -76.84378969 -424.29425086 1135.85722018
v -76.84378969 -435.40314600 1092.58490992
v -25.59998539 -437.19221413 1041.43586752
v -25.59998539 -426.33295109 477.99870448
v -25.59998539 -419.88396946 429.84083851
v -25.59998539 -411.31307690 404.21644814
v -25.59998539 -437.19221413 631.64526061
v -25.59998539 -437.10900344 580.39650852
v -103.52861068 -311.62429632 245.48490736
v -107.22084676 -285.16266512 239.10375390
v -76.84378969 -233.90367391 221.05699520
v -28.84468009 -287.61743792 227.03934805
v -76.84378969 -404.65606852 410.09910084
v -154.60458607 -204.32156527 245.18576873
v -154.60458607 -209.77199947 245.18576873
v -206.18404343 -103.75904376 400.22821291
v -224.70119066 -12.14190110 525.65805059
v -191.63887099 -12.14190110 1219.21120672
v -200.25407897 -29.03407321 1214.72447071
v -212.39371797 -233.90367391 1189.10008035
v -212.11400789 -285.16266512 1188.80097989
v -223.63826944 -338.29397334 1147.82192587
v -209.54062168 -322.52516471 1182.22038794
v -201.31700019 -356.68395707 1167.66336370
v -218.04397235 -375.19879501 1133.46430195
v -180.05865215 -389.92743177 1144.83073037
v -158.80031366 -414.89125134 1121.99813520
v -128.03165103 -403.49108061 1155.10041891
v -128.03165103 -419.59273202 1129.47606672
v -128.03165103 -426.00010831 1092.58490992
v -76.84378969 -435.48635669 1041.43586752
v -76.84378969 -435.44475134 580.39650852
v -76.84378969 -417.97008527 435.72347211
v -76.84378969 -435.48635669 631.64526061
v -207.41479833 -313.62139120 444.39786274
v -198.18419381 -298.68472770 410.19880099
v -104.92718018 -415.09927808 445.19552124
v -215.19087606 -372.32794965 529.14774688
v -220.84111135 -233.90367391 426.74994284
v -220.72923495 -182.72787432 426.74994284
v -220.50546307 -131.51046937 426.74994284
v -212.84126174 -283.04073512 427.04906239
v -206.35187711 -264.52593534 400.12851276
v -245.51199492 -12.14190110 580.39650852
v -230.07171587 -12.14190110 539.01861571
v -200.08626437 -12.14190110 1214.52507040
v -212.28184157 -12.14190110 1188.90068004
v -212.39371797 -29.03407321 1189.10008035
v -232.64510207 -233.90367391 1143.83369064
v -232.36537290 -285.16266512 1143.83369064
v -244.89661747 -336.38005099 1092.58490992
v -224.64523337 -381.85580339 1092.58490992
v -187.10747603 -407.44366502 1092.58490992
v -161.48558581 -415.76496365 1092.58490992
v -161.65340040 -415.80656900 1041.43586752
v -128.03165103 -426.08331900 1041.43586752
v -128.03165103 -426.04171365 580.39650852
v -128.03165103 -426.08331900 631.64526061
v -230.68709332 -336.38005099 529.14774688
v -158.85625186 -414.89125134 549.78684320
v -187.16341423 -407.48527036 580.39650852
v -177.26151315 -397.99906015 531.34128389
v -224.70119066 -381.85580339 580.39650852
v -245.00849387 -336.38005099 580.39650852
v -232.19755830 -233.90367391 477.99870448
v -232.08566282 -182.72787432 477.99870448
v -231.80595273 -131.51046937 477.99870448
v -245.56793312 -12.14190110 631.64526061
v -293.34325892 -140.83028682 793.66708783
v -293.34325892 -134.17327845 802.84003649
v -293.34325892 -125.60237634 836.73997869
v -232.53320659 -12.14190110 1143.83369064
v -232.64510207 -29.03407321 1143.83369064
v -293.34325892 -182.72787432 907.33165830
v -245.45603764 -285.16266512 1092.58490992
v -293.34325892 -232.69708065 888.28785988
v -293.34325892 -232.78029135 887.49020138
v -247.74971376 -336.38005099 887.68962078
v -224.70119066 -381.89740873 990.18712497
v -224.64523337 -381.89740873 1041.43586752
v -187.27530971 -407.48527036 1041.43586752
v -161.65340040 -415.80656900 631.64526061
v -161.54150492 -415.76496365 580.39650852
v -187.27530971 -407.48527036 631.64526061
v -224.70119066 -381.89740873 631.64526061
v -247.69375648 -336.38005099 836.44085914
v -293.34325892 -232.61386995 835.74291988
v -293.34325892 -205.77777154 809.12148980
v -293.34325892 -180.48112826 790.67593049
v -245.67980952 -12.14190110 836.44085914
v -293.34325892 -125.81040309 838.73409631
v -245.45603764 -12.14190110 1092.58490992
v -245.56793312 -12.14190110 1041.43586752
v -245.67980952 -12.14190110 904.53988218
v -293.34325892 -176.48691942 904.63960142
v -293.34325892 -133.29954705 885.09726406
f 1 2 7
f 1 7 19
f 1 19 18
f 1 18 42
f 1 42 67
f 1 67 74
f 1 74 49
f 1 49 48
f 1 48 43
f 1 43 22
f 1 22 9
f 1 9 8
f 1 8 3
f 1 3 4
f 1 4 5
f 1 5 6
f 1 6 2
f 2 6 7
f 3 8 4
f 4 8 9
f 4 9 10
f 4 10 21
f 4 21 20
f 4 20 24
f 4 24 23
f 4 23 47
f 4 47 72
f 4 72 103
f 4 103 133
f 4 133 132
f 4 132 131
f 4 131 167
f 4 167 166
f 4 166 165
f 4 165 164
f 4 164 193
f 4 193 221
f 4 221 220
f 4 220 244
f 4 244 266
f 4 266 270
f 4 270 269
f 4 269 268
f 4 268 248
f 4 248 223
f 4 223 222
f 4 222 194
f 4 194 168
f 4 168 135
f 4 135 107
f 4 107 134
f 4 134 105
f 4 105 104
f 4 104 76
f 4 76 75
f 4 75 50
f 4 50 25
f 4 25 11
f 4 11 5
f 5 11 12
f 5 12 13
f 5 13 6
f 6 13 14
f 6 14 15
f 6 15 16
f 6 16 17
f 6 17 18
f 6 18 19
f 6 19 7
f 9 20 21
f 9 21 10
f 9 22 23
f 9 23 24
f 9 24 20
f 11 25 26
f 11 26 12
f 12 26 51
f 12 51 27
f 12 27 13
f 13 27 28
f 13 28 14
f 14 28 29
f 14 29 30
f 14 30 15
f 15 30 31
f 15 31 32
f 15 32 33
f 15 33 34
f 15 34 35
f 15 35 16
f 16 35 36
f 16 36 37
f 16 37 17
f 17 38 18
f 17 37 39
f 17 39 40
f 17 40 41
f 17 41 38
f 18 38 42
f 22 43 23
f 23 44 45
f 23 45 46
f 23 46 47
f 23 43 48
f 23 48 49
f 23 49 44
f 25 50 26
f 26 50 51
f 27 51 77
f 27 77 52
f 27 52 29
f 27 29 28
f 29 52 53
f 29 53 54
f 29 54 55
f 29 55 30
f 30 55 31
f 31 55 32
f 32 56 34
f 32 34 33
f 32 55 54
f 32 54 57
f 32 57 58
f 32 58 56
f 34 59 60
f 34 60 35
f 34 56 61
f 34 61 59
f 35 60 62
f 35 62 36
f 36 39 37
f 36 62 87
f 36 87 63
f 36 63 40
f 36 40 39
f 38 41 64
f 38 64 42
f 40 63 41
f 41 63 65
f 41 65 66
f 41 66 64
f 42 64 67
f 44 49 68
f 44 68 69
f 44 69 45
f 45 69 70
f 45 70 46
f 46 70 71
f 46 71 47
f 47 71 72
f 49 64 73
f 49 73 68
f 49 74 64
f 50 75 51
f 51 76 77
f 51 75 76
f 52 77 106
f 52 106 78
f 52 78 53
f 53 78 79
f 53 79 54
f 54 79 80
f 54 80 57
f 56 58 81
f 56 81 82
f 56 82 61
f 57 80 83
f 57 83 84
f 57 84 58
f 58 84 81
f 59 85 116
f 59 116 86
f 59 86 60
f 59 61 85
f 60 86 62
f 61 82 85
f 62 86 117
f 62 117 87
f 63 87 91
f 63 91 65
f 64 66 88
f 64 88 89
f 64 89 90
f 64 90 73
f 64 74 67
f 65 91 92
f 65 92 93
f 65 93 94
f 65 94 66
f 66 94 93
f 66 93 95
f 66 95 96
f 66 96 88
f 68 73 90
f 68 90 69
f 69 90 70
f 70 97 98
f 70 98 99
f 70 99 100
f 70 100 71
f 70 90 97
f 71 100 101
f 71 101 102
f 71 102 103
f 71 103 72
f 76 104 77
f 77 104 105
f 77 105 106
f 78 106 107
f 78 107 79
f 79 107 108
f 79 108 136
f 79 136 109
f 79 109 110
f 79 110 80
f 80 110 142
f 80 142 111
f 80 111 83
f 81 112 113
f 81 113 82
f 81 84 112
f 82 113 114
f 82 114 85
f 83 111 115
f 83 115 84
f 84 115 112
f 85 114 146
f 85 146 116
f 86 116 148
f 86 148 117
f 87 117 91
f 88 96 89
f 89 96 118
f 89 118 97
f 89 97 119
f 89 119 90
f 90 119 97
f 91 120 92
f 91 117 120
f 92 120 93
f 93 121 122
f 93 122 95
f 93 120 123
f 93 123 121
f 95 122 124
f 95 124 125
f 95 125 97
f 95 97 118
f 95 118 96
f 97 125 98
f 98 126 127
f 98 127 101
f 98 101 99
f 98 125 126
f 99 101 100
f 101 127 128
f 101 128 129
f 101 129 130
f 101 130 102
f 102 130 131
f 102 131 132
f 102 132 133
f 102 133 103
f 105 134 106
f 106 134 107
f 107 135 136
f 107 136 108
f 109 136 135
f 109 135 169
f 109 169 137
f 109 137 138
f 109 138 139
f 109 139 110
f 110 139 140
f 110 140 141
f 110 141 142
f 111 142 147
f 111 147 115
f 112 143 144
f 112 144 113
f 112 115 147
f 112 147 143
f 113 144 145
f 113 145 114
f 114 145 179
f 114 179 146
f 116 146 152
f 116 152 148
f 117 148 123
f 117 123 120
f 121 123 149
f 121 149 150
f 121 150 151
f 121 151 122
f 122 151 124
f 123 148 152
f 123 152 153
f 123 153 149
f 124 154 155
f 124 155 156
f 124 156 157
f 124 157 126
f 124 126 125
f 124 151 154
f 126 157 156
f 126 156 127
f 127 156 128
f 128 156 155
f 128 155 158
f 128 158 129
f 129 158 155
f 129 155 159
f 129 159 160
f 129 160 161
f 129 161 162
f 129 162 163
f 129 163 130
f 130 163 164
f 130 164 165
f 130 165 166
f 130 166 167
f 130 167 131
f 135 168 169
f 137 169 195
f 137 195 170
f 137 170 138
f 138 170 171
f 138 171 139
f 139 171 172
f 139 172 173
f 139 173 140
f 140 174 175
f 140 175 141
f 140 173 174
f 141 175 147
f 141 147 142
f 143 176 144
f 143 147 175
f 143 175 176
f 144 176 177
f 144 177 145
f 145 178 207
f 145 207 179
f 145 177 178
f 146 179 183
f 146 183 152
f 149 153 184
f 149 184 180
f 149 180 181
f 149 181 150
f 150 181 151
f 151 181 182
f 151 182 154
f 152 183 184
f 152 184 153
f 154 185 186
f 154 186 187
f 154 187 188
f 154 188 155
f 154 182 189
f 154 189 185
f 155 188 187
f 155 187 159
f 159 187 160
f 160 190 161
f 160 187 186
f 160 186 191
f 160 191 190
f 161 190 162
f 162 190 163
f 163 190 192
f 163 192 193
f 163 193 164
f 168 194 169
f 169 194 195
f 170 195 224
f 170 224 196
f 170 196 171
f 171 196 197
f 171 197 198
f 171 198 199
f 171 199 172
f 172 199 200
f 172 200 173
f 173 200 201
f 173 201 202
f 173 202 203
f 173 203 204
f 173 204 174
f 174 204 176
f 174 176 175
f 176 204 177
f 177 205 178
f 177 204 205
f 178 206 232
f 178 232 207
f 178 205 206
f 179 207 210
f 179 210 183
f 180 184 208
f 180 208 209
f 180 209 181
f 181 209 182
f 182 209 189
f 183 210 208
f 183 208 184
f 185 211 212
f 185 212 191
f 185 191 186
f 185 189 213
f 185 213 214
f 185 214 211
f 189 209 213
f 190 215 216
f 190 216 217
f 190 217 192
f 190 191 215
f 191 212 218
f 191 218 219
f 191 219 215
f 192 217 220
f 192 220 221
f 192 221 193
f 194 222 195
f 195 222 223
f 195 223 224
f 196 224 249
f 196 249 225
f 196 225 226
f 196 226 197
f 197 226 198
f 198 226 227
f 198 227 201
f 198 201 199
f 199 201 200
f 201 227 228
f 201 228 229
f 201 229 203
f 201 203 202
f 203 229 230
f 203 230 206
f 203 206 205
f 203 205 204
f 206 230 231
f 206 231 232
f 207 232 234
f 207 234 210
f 208 210 234
f 208 234 233
f 208 233 213
f 208 213 209
f 211 218 212
f 211 214 235
f 211 235 218
f 213 233 236
f 213 236 237
f 213 237 238
f 213 238 214
f 214 238 237
f 214 237 239
f 214 239 240
f 214 240 235
f 215 241 242
f 215 242 216
f 215 219 218
f 215 218 240
f 215 240 241
f 216 242 217
f 217 242 243
f 217 243 220
f 218 235 240
f 220 243 245
f 220 245 246
f 220 246 247
f 220 247 244
f 223 248 224
f 224 248 249
f 225 249 250
f 225 250 226
f 226 250 251
f 226 251 227
f 227 251 250
f 227 250 252
f 227 252 253
f 227 253 254
f 227 254 228
f 228 254 255
f 228 255 256
f 228 256 257
f 228 257 229
f 229 257 231
f 229 231 230
f 231 257 260
f 231 260 258
f 231 258 234
f 231 234 232
f 233 234 258
f 233 258 259
f 233 259 236
f 236 259 237
f 237 259 258
f 237 258 260
f 237 260 239
f 239 260 261
f 239 261 254
f 239 254 262
f 239 262 240
f 240 262 263
f 240 263 264
f 240 264 265
f 240 265 241
f 241 265 242
f 242 265 243
f 243 265 245
f 244 247 266
f 245 265 264
f 245 264 263
f 245 263 253
f 245 253 252
f 245 252 250
f 245 250 271
f 245 271 272
f 245 272 267
f 245 267 247
f 245 247 246
f 247 267 268
f 247 268 269
f 247 269 270
f 247 270 266
f 248 268 250
f 248 250 249
f 250 268 271
f 253 263 262
f 253 262 254
f 254 261 255
f 255 257 256
f 255 261 260
f 255 260 257
f 267 272 268
f 268 272 271

