# https://github.com/mikedh/trimesh
v 587.33895840 -364.14272722 652.94186457
v 537.91924802 -363.93870833 653.19413040
v 509.10872773 -311.58635530 605.64087792
v 514.49555155 -311.58635530 605.64087792
v 587.33895840 -363.04098707 652.05891511
v 587.33895840 -364.14272722 666.52249908
v 537.91924802 -363.93870833 665.97591359
v 508.38238996 -363.28580973 654.62367489
v 491.67715564 -333.00879635 632.21352669
v 455.69425505 -320.27773160 643.98621797
v 509.10872773 -310.23979248 605.64087792
v 514.49555155 -310.23979248 605.64087792
v 587.33895840 -336.23233292 637.17486902
v 587.33895840 -357.12432487 692.12810024
v 537.91924802 -357.08352109 691.58150521
v 508.38238996 -363.28580973 662.99069170
v 278.17060912 -259.64204003 888.14334809
v 278.17060912 -259.19317939 836.17534831
v 278.17060912 -233.36383498 804.26295848
v 278.17060912 -205.86151662 786.30960189
v 278.17060912 -181.17469705 776.72327164
v 459.77978572 -258.41788854 655.92708647
v 278.17060912 -171.83044123 778.69939208
v 278.17060912 -136.41200879 788.79027305
v 587.33895840 -301.05875177 641.42143911
v 587.33895840 -335.17143471 637.25895763
v 463.32055352 -258.41788854 655.92708647
v 520.12448796 49.49394105 963.11017358
v 587.33895840 38.96635660 977.02716252
v 587.33895840 -331.53982220 729.25410777
v 278.17060912 -251.56270130 908.15691373
v 486.68371230 49.73878280 962.77378098
v 278.17060912 -113.72462201 822.21629599
v 460.26397273 48.67784642 963.61470522
v 537.49556053 52.71751579 988.54756889
v 587.33895840 51.98302871 1002.50662122
v 587.33895840 -281.26849997 779.62440493
v 278.17060912 -236.01615684 923.75573207
v 484.53504418 51.28934541 988.92594854
v 278.17060912 -108.58324112 836.51170274
v 460.26397273 48.67784642 970.97263012
v 537.91924802 52.63590823 1020.41791443
v 587.33895840 51.98302871 1020.54402825
v 587.33895840 -126.70050943 934.18296747
v 587.33895840 -75.44986792 985.39415070
v 587.33895840 -50.59984278 1010.07474855
v 587.33895840 -49.66133682 1010.99976140
v 587.33895840 -24.97452680 1029.75197885
v 587.33895840 -24.03602084 1030.42472587
v 537.91924802 -23.91360951 1030.21448527
v 278.17060912 -221.48968772 930.39890381
v 500.18109794 51.04452275 1018.60995212
v 278.17060912 -113.60221068 886.88199990
v 466.01398452 39.17037549 1005.11340621
v 537.91924802 22.19564157 1034.83947318
v 587.33895840 22.19564157 1035.17582761
v 486.68371230 -16.77279582 1024.20201626
v 278.17060912 -182.68447498 937.58865149
v 484.53504418 22.15483780 1024.20201626
v 278.17060912 -132.53556407 911.39442054
v 459.81005457 5.01688877 1017.39064823
v 459.81005457 -7.55094179 1017.39064823
f 1 2 3
f 1 3 4
f 1 4 5
f 1 5 13
f 1 13 26
f 1 26 25
f 1 25 29
f 1 29 36
f 1 36 43
f 1 43 56
f 1 56 49
f 1 49 48
f 1 48 47
f 1 47 46
f 1 46 45
f 1 45 44
f 1 44 37
f 1 37 30
f 1 30 14
f 1 14 6
f 1 6 7
f 1 7 2
f 2 7 16
f 2 16 8
f 2 8 3
f 3 9 10
f 3 10 11
f 3 11 12
f 3 12 4
f 3 8 9
f 4 12 13
f 4 13 5
f 6 14 15
f 6 15 7
f 7 15 16
f 8 10 9
f 8 16 17
f 8 17 18
f 8 18 10
f 10 18 19
f 10 19 20
f 10 20 21
f 10 21 11
f 11 22 27
f 11 27 12
f 11 21 23
f 11 23 24
f 11 24 22
f 12 25 26
f 12 26 13
f 12 27 28
f 12 28 29
f 12 29 25
f 14 30 31
f 14 31 15
f 15 31 17
f 15 17 16
f 17 31 38
f 17 38 51
f 17 51 58
f 17 58 60
f 17 60 53
f 17 53 40
f 17 40 33
f 17 33 24
f 17 24 23
f 17 23 21
f 17 21 20
f 17 20 19
f 17 19 18
f 22 24 32
f 22 32 27
f 24 33 34
f 24 34 32
f 27 32 28
f 28 32 35
f 28 35 36
f 28 36 29
f 30 37 38
f 30 38 31
f 32 34 39
f 32 39 35
f 33 40 34
f 34 41 39
f 34 40 41
f 35 39 42
f 35 42 43
f 35 43 36
f 37 44 38
f 38 44 45
f 38 45 46
f 38 46 47
f 38 47 48
f 38 48 49
f 38 49 50
f 38 50 51
f 39 52 42
f 39 41 52
f 40 53 41
f 41 54 52
f 41 53 54
f 42 52 55
f 42 55 56
f 42 56 43
f 49 56 50
f 50 56 55
f 50 55 57
f 50 57 51
f 51 57 58
f 52 59 55
f 52 54 59
f 53 60 54
f 54 61 59
f 54 60 61
f 55 59 57
f 57 59 62
f 57 62 58
f 58 62 61
f 58 61 60
f 59 61 62

