# https://github.com/mikedh/trimesh
v 1869.92969714 103.21251448 969.33528791
v 1613.64502791 52.41931232 1020.15286164
v 2126.01969913 48.92341340 1016.89470484
v 2535.84153868 15.04414028 1030.41365656
v 1911.37885341 101.67021567 967.63324747
v 1869.92969714 103.21251448 952.31503621
v 1818.55587135 101.77304577 967.92501929
v 587.33895840 52.00803009 1020.54189073
v 947.92770091 1.52328006 1071.60264582
v 1306.57053458 0.90635672 1071.60264582
v 1357.74954046 0.90635672 1070.77595900
v 2535.84153868 -23.97615112 1030.41365656
v 2570.67429951 8.72069992 1025.40483069
v 2535.84153868 21.67605185 990.19724003
v 1204.01770291 -32.97292595 1083.17641391
v 1911.37885341 101.67021567 956.64302300
v 1921.10870302 -254.03650186 595.81386646
v 1869.92969714 -252.03150578 591.24269832
v 587.33895840 38.94984806 977.01872694
v 587.33895840 52.00803009 1002.50043767
v 1818.55587135 101.77304577 957.03205209
v 587.33895840 22.19014509 1035.13067244
v 858.60758380 -1.40710103 1068.39307949
v 896.55402781 0.49507449 1070.09511992
v 999.10685948 1.06058278 1071.79716036
v 1152.83869703 -33.69266984 1083.61407164
v 2535.84153868 -49.57839332 1010.76742034
v 2570.67429951 -16.98437238 1025.40483069
v 1204.01770291 -66.02963462 1083.17641391
v 2575.15027156 -32.04754094 993.21225365
v 2571.64748295 8.97773699 990.19724003
v 2565.80960373 0.95777177 960.19298979
v 1921.10870302 -285.13962950 589.58930560
v 2565.80960373 -50.24673170 908.93772016
v 2565.80960373 -255.11610339 704.06261343
v 2565.80960373 -306.37202191 653.48817333
v 1869.92969714 -285.13962950 586.81743517
v 587.33895840 -301.02535298 641.42811887
v 587.33895840 20.54503527 1034.98478654
v 858.60758380 -6.44529875 1068.39307949
v 1152.83869703 -66.33809629 1083.61407164
v 2535.84153868 -75.23205056 985.18841416
v 2570.67429951 -68.24027181 978.13718557
v 1204.01770291 -421.73636170 724.63279373
v 2535.84153868 -331.30595434 729.05805689
v 2535.84153868 -305.75507948 754.68568216
v 2535.84153868 -280.15284683 780.31329789
v 2535.84153868 -100.88570780 959.56081752
v 2575.34478611 -185.71242824 839.54375928
v 2572.23102659 -31.53343816 941.42206902
v 2023.46686746 -317.88788605 600.19050098
v 2535.84153868 -336.39554802 649.30605336
v 2059.66199351 -314.54621320 603.49728641
v 2572.23102659 -185.14691995 787.80222238
v 2572.23102659 -236.40281938 736.54696229
v 2572.23102659 -287.65873791 685.34034038
v 2566.00411827 -336.39554802 653.39091606
v 1972.28770890 -318.40199837 597.95354554
v 1767.37686547 -319.07031768 596.73781055
v 1716.19785958 -320.35557940 597.61314509
v 587.33895840 -336.24130288 637.14874163
v 587.33895840 -335.16166318 637.24599890
v 587.33895840 -24.07897168 1030.41365656
v 1101.65953847 -63.66477137 1079.14016077
v 1152.83869703 -421.99339877 725.11908964
v 2570.67429951 -119.49618079 926.93054458
v 2563.08517866 -363.18023139 662.53321418
v 2535.84153868 -356.95958296 691.22448170
v 1204.01770291 -421.73636170 698.76202528
v 2570.67429951 -324.31415651 722.05543785
v 2570.67429951 -221.90516865 824.51731984
v 2575.34478611 -288.17283114 737.13051546
v 2575.34478611 -236.91693171 788.33713737
v 2563.08517866 -363.18023139 655.82238604
v 2570.67429951 -339.37731553 680.91507723
v 2535.84153868 -363.84855069 655.04430877
v 1460.10770491 -371.14876248 648.18757564
v 1152.83869703 -421.99339877 698.71339664
v 743.01678114 -370.84034852 647.74991792
v 691.64310803 -368.83535244 648.13894701
v 587.33895840 -363.07740129 652.07792379
v 587.33895840 -49.68121387 1011.01056352
v 1050.28586536 -60.06606144 1074.08270626
v 587.33895840 -75.43769167 985.38292871
v 587.33895840 -76.36307668 984.45898462
v 587.33895840 -101.09134892 959.75533206
v 587.33895840 -127.61897612 933.25234362
v 587.33895840 -280.35848795 780.50783152
v 587.33895840 -306.88611515 753.95624307
v 587.33895840 -331.51157637 729.25257143
v 1101.65953847 -419.83419572 719.57534877
v 1101.65953847 -419.83419572 699.49146437
v 587.33895840 -364.10558777 652.95325833
v 587.33895840 -332.43693275 727.93958871
v 1016.62057350 -414.43611174 710.33578384
v 1050.28586536 -416.80097499 714.08024608
v 1050.28586536 -416.80097499 702.36059207
v 587.33895840 -364.10558777 666.52081960
v 1016.62057350 -414.43611174 705.81326341
v 587.33895840 -357.11378993 692.09981624
v 587.33895840 -357.37086518 691.22448170
f 1 2 3
f 1 3 4
f 1 4 5
f 1 5 16
f 1 16 6
f 1 6 21
f 1 21 7
f 1 7 8
f 1 8 9
f 1 9 2
f 2 9 10
f 2 10 3
f 3 10 11
f 3 11 4
f 4 12 28
f 4 28 13
f 4 13 14
f 4 14 5
f 4 11 15
f 4 15 29
f 4 29 12
f 5 14 16
f 6 16 17
f 6 17 18
f 6 18 19
f 6 19 20
f 6 20 21
f 7 21 20
f 7 20 8
f 8 20 19
f 8 19 38
f 8 38 62
f 8 62 61
f 8 61 81
f 8 81 93
f 8 93 98
f 8 98 101
f 8 101 100
f 8 100 94
f 8 94 90
f 8 90 89
f 8 89 88
f 8 88 87
f 8 87 86
f 8 86 85
f 8 85 84
f 8 84 82
f 8 82 63
f 8 63 39
f 8 39 22
f 8 22 23
f 8 23 24
f 8 24 9
f 9 25 10
f 9 24 26
f 9 26 25
f 10 25 26
f 10 26 15
f 10 15 11
f 12 27 28
f 12 29 27
f 13 28 30
f 13 30 31
f 13 31 14
f 14 31 32
f 14 32 16
f 15 26 41
f 15 41 29
f 16 32 17
f 17 33 18
f 17 32 34
f 17 34 35
f 17 35 36
f 17 36 33
f 18 33 37
f 18 37 38
f 18 38 19
f 22 39 40
f 22 40 23
f 23 40 41
f 23 41 26
f 23 26 24
f 27 42 43
f 27 43 28
f 27 29 42
f 28 43 30
f 29 41 44
f 29 44 45
f 29 45 46
f 29 46 47
f 29 47 48
f 29 48 42
f 30 49 50
f 30 50 31
f 30 43 49
f 31 50 32
f 32 50 34
f 33 51 37
f 33 36 52
f 33 52 53
f 33 53 51
f 34 50 54
f 34 54 35
f 35 54 55
f 35 55 56
f 35 56 36
f 36 56 57
f 36 57 52
f 37 51 58
f 37 58 59
f 37 59 60
f 37 60 61
f 37 61 62
f 37 62 38
f 39 63 40
f 40 63 64
f 40 64 41
f 41 64 65
f 41 65 44
f 42 48 43
f 43 66 49
f 43 48 66
f 44 67 68
f 44 68 45
f 44 65 78
f 44 78 69
f 44 69 74
f 44 74 67
f 45 68 70
f 45 70 46
f 46 70 47
f 47 70 71
f 47 71 66
f 47 66 48
f 49 72 73
f 49 73 54
f 49 54 50
f 49 66 72
f 51 53 52
f 51 52 74
f 51 74 58
f 52 57 74
f 54 73 55
f 55 73 72
f 55 72 56
f 56 75 57
f 56 72 75
f 57 75 74
f 58 74 76
f 58 76 69
f 58 69 77
f 58 77 59
f 59 77 60
f 60 77 78
f 60 78 79
f 60 79 80
f 60 80 61
f 61 80 81
f 63 82 83
f 63 83 64
f 64 83 82
f 64 82 84
f 64 84 85
f 64 85 86
f 64 86 87
f 64 87 88
f 64 88 89
f 64 89 90
f 64 90 91
f 64 91 65
f 65 91 92
f 65 92 78
f 66 71 72
f 67 74 75
f 67 75 70
f 67 70 68
f 69 78 77
f 69 76 74
f 70 75 72
f 70 72 71
f 78 92 80
f 78 80 79
f 80 93 81
f 80 92 93
f 90 94 95
f 90 95 96
f 90 96 91
f 91 96 97
f 91 97 92
f 92 97 93
f 93 97 99
f 93 99 95
f 93 95 98
f 94 100 95
f 95 99 97
f 95 97 96
f 95 100 101
f 95 101 98

