# https://github.com/mikedh/trimesh
v -1869.90984871 103.21259082 969.33532608
v -1818.63908205 101.77312211 967.92505746
v -1869.90984871 103.21259082 952.31507438
v -1911.40603048 101.67029201 967.63328564
v -2535.87726584 15.04421662 1030.41365656
v -2126.07954976 48.92348974 1016.89474301
v -1613.92458532 52.41938866 1020.15286164
v -947.95709185 1.52335640 1071.60264582
v -691.23407784 25.94315742 1029.05205475
v -1818.63908205 101.77312211 957.03209026
v -691.23407784 32.00956070 995.06017999
v -691.23407784 32.11239080 994.28212181
v -1869.90984871 -252.03142944 591.24277466
v -1920.99633041 -254.03642552 595.81392372
v -1911.40603048 101.67029201 956.64306117
v -691.23407784 12.62793831 968.41134382
v -691.78739080 4.29950188 957.37252889
v -691.23407784 4.09386076 957.17797617
v -2535.87726584 21.67612819 990.19724003
v -2570.73415014 8.72077626 1025.40483069
v -2535.87726584 -23.97607478 1030.41365656
v -1203.94243158 -32.97284961 1083.17641391
v -1357.75488427 0.90643306 1070.77595900
v -1306.48396492 0.90643306 1071.60264582
v -999.04349720 1.06065912 1071.79716036
v -1152.85594989 -33.69259350 1083.61407164
v -896.68624884 0.49515083 1070.09515809
v -858.69422980 -1.40702469 1068.39311766
v -691.23407784 -23.71901862 1031.38622929
v -1818.63908205 -285.13955316 589.20033377
v -1869.90984871 -285.13955316 586.86614015
v -1920.99633041 -285.13955316 589.58938194
v -691.78739080 -303.69861110 650.27870242
v -691.23407784 -303.95566726 650.18144515
v -691.78739080 -336.39547168 641.18501386
v -2565.75463886 -306.37194557 653.48823059
v -2565.75463886 -255.11602705 704.06266114
v -2565.75463886 -50.24665536 908.93775833
v -2565.75463886 0.95784811 960.19298979
v -691.23407784 -278.25058543 675.76043225
v -2571.65633840 8.97781333 990.19724003
v -2575.16034846 -32.04746460 993.21229182
v -2570.73415014 -16.98429604 1025.40483069
v -2535.87726584 -49.57831698 1010.76745851
v -1203.94243158 -66.02955828 1083.17641391
v -1152.85594989 -66.33801995 1083.61407164
v -858.69422980 -6.44522241 1068.39311766
v -691.23407784 -24.07889534 1031.38622929
v -1972.26709708 -318.40192203 597.95360280
v -2023.53786375 -317.88780971 600.19055823
v -691.23407784 -336.60109371 641.23366158
v -1716.09739603 -320.35550306 597.61320234
v -1767.36816270 -319.07024134 596.73786781
v -2059.68565893 -314.54613686 603.49734367
v -2535.87726584 -336.39547168 649.30611062
v -2565.93907652 -336.39547168 653.39097331
v -2572.20965136 -287.65866157 685.34039763
v -2572.20965136 -236.40274304 736.54701000
v -2572.20965136 -185.14684361 787.80226055
v -2572.20965136 -31.53336182 941.42210719
v -2575.34478611 -83.30336881 942.00565082
v -2570.73415014 -68.24019547 978.13718557
v -2535.87726584 -75.23197422 985.18845233
v -1203.94243158 -421.73628536 724.63284145
v -2535.87726584 -100.88563146 959.56081752
v -2535.87726584 -280.15277049 780.31335514
v -2535.87726584 -305.75500314 754.68572987
v -2535.87726584 -331.30587800 729.05810460
v -1152.85594989 -421.99332243 725.11913735
v -1101.58518322 -63.66469503 1079.14016077
v -1050.31434021 -60.06598510 1074.08274443
v -1011.03133394 -56.92997244 1069.94927218
v -691.23407784 -49.68113753 1011.01060169
v -2535.87726584 -363.84847435 655.04436603
v -2563.17251172 -363.18015505 655.82242421
v -1460.11213263 -371.14868614 648.18763290
v -1203.94243158 -421.73628536 698.76207299
v -691.23407784 -368.78382288 648.33351881
v -691.78739080 -368.83527610 648.13900426
v -742.87379615 -370.84027218 647.74997517
v -1152.85594989 -421.99332243 698.71344436
v -2570.73415014 -339.37723919 680.91513448
v -2575.16034846 -288.17275480 737.13056318
v -2570.73415014 -324.31408017 722.05549510
v -2570.73415014 -221.90509231 824.51735801
v -2570.73415014 -119.49610445 926.93058275
v -2535.87726584 -356.95950662 691.22453896
v -2563.17251172 -363.18015505 662.53327143
v -1101.58518322 -419.83411938 719.57539648
v -1050.31434021 -416.80089865 714.08029379
v -1016.56415818 -414.43603540 710.33584109
v -691.23407784 -331.51150003 729.30124778
v -691.23407784 -305.96066334 754.88024442
v -691.23407784 -254.75615987 806.13548542
v -691.23407784 -75.48903038 985.38296688
v -691.23407784 -368.78382288 674.05841089
v -1016.56415818 -414.43603540 705.81332067
v -1050.31434021 -416.80089865 702.36063979
v -1101.58518322 -419.83411938 699.49151208
v -691.23407784 -357.16516681 699.63739799
f 1 2 10
f 1 10 3
f 1 3 15
f 1 15 4
f 1 4 5
f 1 5 6
f 1 6 7
f 1 7 8
f 1 8 9
f 1 9 2
f 2 9 11
f 2 11 12
f 2 12 10
f 3 13 14
f 3 14 15
f 3 10 12
f 3 12 16
f 3 16 17
f 3 17 18
f 3 18 13
f 4 15 19
f 4 19 5
f 5 19 20
f 5 20 43
f 5 43 21
f 5 21 45
f 5 45 22
f 5 22 23
f 5 23 6
f 6 23 24
f 6 24 7
f 7 24 8
f 8 25 26
f 8 26 27
f 8 27 9
f 8 24 25
f 9 27 28
f 9 28 29
f 9 29 48
f 9 48 73
f 9 73 95
f 9 95 94
f 9 94 93
f 9 93 92
f 9 92 100
f 9 100 96
f 9 96 78
f 9 78 51
f 9 51 34
f 9 34 40
f 9 40 18
f 9 18 16
f 9 16 12
f 9 12 11
f 13 30 31
f 13 31 32
f 13 32 14
f 13 18 33
f 13 33 34
f 13 34 35
f 13 35 30
f 14 32 36
f 14 36 37
f 14 37 38
f 14 38 39
f 14 39 15
f 15 39 19
f 16 18 17
f 18 40 33
f 19 39 41
f 19 41 20
f 20 41 42
f 20 42 43
f 21 43 44
f 21 44 45
f 22 45 46
f 22 46 26
f 22 26 24
f 22 24 23
f 24 26 25
f 26 46 47
f 26 47 28
f 26 28 27
f 28 47 48
f 28 48 29
f 30 35 31
f 31 49 50
f 31 50 32
f 31 35 51
f 31 51 52
f 31 52 53
f 31 53 49
f 32 50 54
f 32 54 55
f 32 55 36
f 33 40 34
f 34 51 35
f 36 55 56
f 36 56 57
f 36 57 37
f 37 57 58
f 37 58 59
f 37 59 38
f 38 59 60
f 38 60 39
f 39 60 41
f 41 60 42
f 42 61 62
f 42 62 43
f 42 60 61
f 43 62 44
f 44 62 63
f 44 63 45
f 45 64 46
f 45 63 65
f 45 65 66
f 45 66 67
f 45 67 68
f 45 68 64
f 46 64 69
f 46 69 70
f 46 70 47
f 47 70 71
f 47 71 72
f 47 72 48
f 48 72 73
f 49 74 75
f 49 75 50
f 49 53 76
f 49 76 77
f 49 77 74
f 50 75 55
f 50 55 54
f 51 78 79
f 51 79 52
f 52 79 80
f 52 80 81
f 52 81 76
f 52 76 53
f 55 75 56
f 56 75 82
f 56 82 57
f 57 82 83
f 57 83 61
f 57 61 58
f 58 61 59
f 59 61 60
f 61 83 84
f 61 84 85
f 61 85 86
f 61 86 62
f 62 86 65
f 62 65 63
f 64 77 81
f 64 81 69
f 64 68 87
f 64 87 88
f 64 88 75
f 64 75 77
f 65 86 66
f 66 86 85
f 66 85 84
f 66 84 67
f 67 84 68
f 68 84 87
f 69 89 70
f 69 81 99
f 69 99 89
f 70 90 71
f 70 89 90
f 71 90 91
f 71 91 72
f 72 91 92
f 72 92 93
f 72 93 94
f 72 94 95
f 72 95 73
f 74 77 75
f 75 88 82
f 76 81 77
f 78 96 91
f 78 91 97
f 78 97 79
f 79 97 98
f 79 98 99
f 79 99 81
f 79 81 80
f 82 88 84
f 82 84 83
f 84 88 87
f 89 99 98
f 89 98 90
f 90 98 97
f 90 97 91
f 91 96 100
f 91 100 92

